<svg xmlns="http://www.w3.org/2000/svg" viewBox="0 0 456.8 319.36"><g id="Layer_2" data-name="Layer 2"><g id="Layer_1-2" data-name="Layer 1"><path d="M116.44,319.34q-57.76,0-115.52,0c-.72,0-.92-.14-.92-.9Q0,159.7,0,.94C0,.1.21,0,1,0Q228.4,0,455.82,0c.77,0,1,.1,1,.94q0,158.72,0,317.42c0,.86-.21,1-1,1q-56.82,0-113.64,0a.22.22,0,0,1,.1-.31,20.72,20.72,0,0,1,4.31-.17H367a3.21,3.21,0,0,0,1.07-.09c2.37-.2,4.74,0,7.1-.11a94.7,94.7,0,0,0,21.4-2.66,39.73,39.73,0,0,0,4.37-1.54c3.14-1.2,4.2-3.59,4.36-6.71a66.37,66.37,0,0,0,0-9.46,8.09,8.09,0,0,1-.18-2,44.35,44.35,0,0,0-1.05-5.61c-1.14-5.5-2.56-10.94-4-16.38s-2.83-11.14-4.38-16.68c-.28-1-.47-2-.78-3-.12-.38-.33-.82,0-1.21a7.14,7.14,0,0,1,2.42-.36c3.09,0,6.17-.22,9.25-.45,4.51-.34,9-.73,13.52-1.26s9.16-1.25,13.72-2.05c2.33-.41,4.62-1,6.93-1.54a45.69,45.69,0,0,0,11.48-4.39,5.27,5.27,0,0,0,2.81-5c-.17-6.41.19-12.82.22-19.24,0-5.69,0-11.38.21-17.06.16-4.57,0-9.15.17-13.71.3-6.09,0-12.17.22-18.25.14-3.52.09-7,.17-10.55,0-5.43-1-10.74-2-16.05-1.6-9-3.52-17.9-5.42-26.82q-3.81-17.82-7.87-35.59c-2.82-12.46-5.7-24.91-8.72-37.32-1.77-7.23-3.58-14.46-5.79-21.56-.46-1.48-1-2.92-1.59-4.37a11,11,0,0,0-4.85-5.53,50.64,50.64,0,0,0-11-4.78,144,144,0,0,0-27.22-5.26c-5-.55-10.09-.88-15.16-1-3.52-.1-7.05,0-10.57-.16-7.53-.38-15.08,0-22.62-.19C310.79.47,288.29,1,265.8.68,243.11.4,220.42.42,197.73.57c-24.21.17-48.42,0-72.62.19C117.51.84,109.9.7,102.3,1c-3.73.12-7.44.06-11.16.16a206.58,206.58,0,0,0-24.59,2,127.64,127.64,0,0,0-20,4.38,53.64,53.64,0,0,0-11,4.8,11,11,0,0,0-4.87,5.76,118.43,118.43,0,0,0-3.78,12.37c-2.83,11-5.36,22-7.86,33.06Q16.24,76.06,13.52,88.6c-2.65,12.33-5.3,24.67-7.76,37C4,134.45,2.2,143.26,1,152.18a49.57,49.57,0,0,0-.51,6.89c0,2.47,0,4.94,0,7.41.21,7.07,0,14.15.24,21.23.13,4.57-.06,9.15.18,13.72.26,5.17-.06,10.34.2,15.5.23,4.77,0,9.55.19,14.31.12,2.64.12,5.27.18,7.9a4.36,4.36,0,0,0,2.08,3.8,36,36,0,0,0,10,4.24,79.72,79.72,0,0,0,8.08,1.92c4.42,1,8.91,1.6,13.4,2.13,3.61.43,7.23.8,10.86,1.08,4.25.33,8.49.65,12.75.8a31.25,31.25,0,0,1,3.34.24,1,1,0,0,1,.64,1.26,12.61,12.61,0,0,1-.28,1.36c-1,3.72-1.9,7.46-2.8,11.19-1.24,5.15-2.49,10.29-3.7,15.45-1.09,4.61-2.18,9.22-2.83,13.91a45.78,45.78,0,0,0-.25,9.93A12.34,12.34,0,0,0,53.89,312a4.43,4.43,0,0,0,2,1.88,13.8,13.8,0,0,0,3,1.33,12.46,12.46,0,0,0,1.79.58c.29.11.61.12.91.21a79.43,79.43,0,0,0,12,2.09,26,26,0,0,1,2.63.26,36.91,36.91,0,0,0,4.32.24c7.22,0,14.44.32,21.67.24,4.24-.05,8.48,0,12.72,0a2.6,2.6,0,0,1,1.35.17A.23.23,0,0,1,116.44,319.34Z" fill="#fefefe"/><path d="M116.44,319.34l0-.17c.42-.45,1-.31,1.49-.31q18.53,0,37,0H299.68q20.44,0,40.9,0c.54,0,1.13-.17,1.59.31a1.22,1.22,0,0,0,0,.17Z" fill="#bdbec0"/><path d="M21.55,249.35c-5.76-1.1-11.44-2.49-16.67-5.28-.47-.24-.91-.54-1.36-.81A4.7,4.7,0,0,1,1.2,239C1.08,227.19.9,215.4.74,203.61Q.53,188.06.34,172.5c0-2.93,0-5.86-.14-8.79-.28-6.82.68-13.52,1.85-20.21,2.06-11.76,4.5-23.45,6.94-35.14,2-9.57,4.12-19.11,6.19-28.66q4-18.37,8.34-36.67c1.84-7.71,3.61-15.44,6.15-23,.36-1.09.82-2.15,1.27-3.21,1.17-2.85,3.59-4.37,6.15-5.73A68.54,68.54,0,0,1,54.68,5.06,178.11,178.11,0,0,1,88.73,1c11-.29,22.07-.33,33.1-.41C144.76.35,167.68.39,190.6.35q35.24-.06,70.46,0,34.38,0,68.77.2c11.59.05,23.19.1,34.78.37a175.28,175.28,0,0,1,40.53,5.28,65.29,65.29,0,0,1,14,5.33,13.61,13.61,0,0,1,6.65,8.19c2.87,8.49,5,17.19,7.05,25.89q4.11,17.07,8,34.19,4.45,19.53,8.63,39.13c1.62,7.62,3.24,15.25,4.64,22.91a112.11,112.11,0,0,1,2.27,16.8,8.83,8.83,0,0,1,0,.89c-.08,3.82-2.83,5.8-5.46,7.86a51.43,51.43,0,0,1-12,6,8.74,8.74,0,0,0-2.33.77,160.31,160.31,0,0,1-20.65,4.83,11,11,0,0,0-5.41,2.22c-.36.31-.72.62-.65,1.14.23,1.6-.44,3-.89,4.47a5.75,5.75,0,0,0-.3,2.68,5.09,5.09,0,0,1-.21,1.94c-.33,1.62-1,3.18-.86,4.9a1.36,1.36,0,0,1,0,.49c-.9,2.56-1.08,5.31-1.95,7.88a1.23,1.23,0,0,1-.08.29c-1.42,2-1.56,4.44-2.34,6.66a19.4,19.4,0,0,0-1,5.89,44.08,44.08,0,0,1-.54,6.39,2.14,2.14,0,0,1-2.63,1.46c-.67-.19-1,0-1,.61a6.15,6.15,0,0,1-1.18,2.25.76.76,0,0,1-.84.39c-.36-.08-.59-.29-.49-.71a4,4,0,0,0,.33-1.82c0-6.14,0-12.28,0-18.42,0-.58-.18-.85-.74-.93a10.37,10.37,0,0,0-1.47-.1c-2.33,0-4.67-.06-7,0a15.61,15.61,0,0,0-4.64.72,5.77,5.77,0,0,0-2.22-.34c-11.93,0-23.85-.07-35.77.06-4.05,0-8.09.11-12.14.13-12.45,0-24.89,0-37.34,0q-67.38,0-134.77,0c-4.05,0-8.1.13-12.14,0-2.41-.06-4.8,0-7.21,0-4.49,0-9,.15-13.49,0-2.17-.09-4.32,0-6.49,0-14.41-.32-28.82-.11-43.24-.18-.82,0-1.4.21-1.61,1.08a.93.93,0,0,1-.46.62c-.61-.21-.33-.69-.29-1.06s-.09-.63-.52-.65c-3.47-.13-6.93-.72-10.41-.19-1.14.17-1.27.44-1.4,1.59-.33,2.89,0,5.78,0,8.66-.06,3.11,0,6.23-.07,9.34a1.25,1.25,0,0,0,1,1.43,4.57,4.57,0,0,0,1.17.14c1.15,0,2.3,0,3.45.05a1.22,1.22,0,0,1,1.07.37,1.64,1.64,0,0,1,0,1.25c-2,7.62-4,15.26-5.87,22.91-.09.36-.13.8-.64.89a33.93,33.93,0,0,0-4-.27c-2,.05-4.07-.14-6.09-.27-2.86-.19-5.72-.44-8.58-.69s-5.86-.57-8.79-.89S29,250.54,26,250A27.93,27.93,0,0,0,21.55,249.35Z" fill="#073964"/><path d="M62.71,253.35q2.24-8.73,4.49-17.45.81-3.15,1.64-6.29a2.87,2.87,0,0,0,.16-1.16.56.56,0,0,1,0-.56c1.46-5.13,2.74-10.31,4.22-15.43a2.27,2.27,0,0,1,.92-1.47,9.49,9.49,0,0,1,4.27-.61c13.34-.06,26.68,0,40,0a2.77,2.77,0,0,1,1.07.14.53.53,0,0,1,.33.46,7.64,7.64,0,0,1-.32,3.1,15.49,15.49,0,0,0-.94,4.27,5.71,5.71,0,0,1-.38,1.72,1.78,1.78,0,0,0-.21.85,8.36,8.36,0,0,1-.38,3.29c-.35.93.46,1.34.89,1.92-1.45.58-1.77,1.73-1.85,3.19a56.47,56.47,0,0,1-1.17,6.26,9.23,9.23,0,0,0-.08,1.18,1.23,1.23,0,0,0,1.16,1.43,35.69,35.69,0,0,0,3.72.48c.47,0,1.07,0,1.07.7s-.45,1-1.15,1c-1.45,0-2.9,0-4.35,0-.79,0-1.08.27-1.29,1.09-.35,1.39-.66,2.8-.9,4.2a25.46,25.46,0,0,0-.62,4.53,1.27,1.27,0,0,0,1.09,1.32,8.79,8.79,0,0,0,2.15.31,38.41,38.41,0,0,0,7.19-.23,4.21,4.21,0,0,1,1.37.06,25.58,25.58,0,0,0,8.64-.29,6.21,6.21,0,0,0,1.52-.35c.35-.13.88-.15.84-.66s-.52-.43-.86-.5-.59-.06-.8-.31a1,1,0,0,1,0-.89c.32-.42.86-.43,1.29-.63s.79-.18.77-.63-.45-.42-.76-.5c-.54-.14-.92-.36-.7-1,.33-.47.91-.48,1.37-.71.18-.08.4-.14.4-.38s-.21-.32-.39-.39c-.44-.19-1-.24-1.17-.8a.44.44,0,0,1,.23-.47c.5-.2,1.06-.21,1.6-.45-.46-.41-1.2-.18-1.5-.77-.07-.95-.62-1.32-1.53-1.46-2.41-.36-4.82-.71-7.21-1.16-.51-.09-1.41,0-1.29-.71s1-.33,1.51-.29a29.4,29.4,0,0,0,8.83-.35,4.65,4.65,0,0,0,1.6-.36c.22-.11.55-.18.51-.5s-.34-.37-.59-.43c-.52-.14-1.18-.1-1-1a.65.65,0,0,1,.15-.23,9.91,9.91,0,0,1,1.17-.48c.2-.09.47-.15.48-.42s-.26-.36-.46-.44c-.76-.3-1.23-.75-.93-1.64a.55.55,0,0,1,.17-.2,7.58,7.58,0,0,1,1.12-.34c.25-.08.56-.12.58-.44s-.28-.39-.52-.48a2.09,2.09,0,0,1-.89-.39c-.29-.86.4-.95.92-1.2.28-.13.73-.12.73-.52s-.41-.4-.68-.47c-.78-.19-.61-1-1-1.44a4.49,4.49,0,0,0-1.12-.6c-.22-.1-.58-.15-.5-.48s.41-.3.66-.3a14.15,14.15,0,0,0,3-.25c-.69.07-1.31-.17-1.31-.92s-.87-1.58.44-2a3.76,3.76,0,0,0,1.23-.3c.17-.09.39-.15.38-.39s-.22-.31-.41-.37-.73,0-1-.38a1.27,1.27,0,0,1,0-1c.4-.49,1.07-.44,1.56-.75.16-.11.41-.15.39-.38s-.26-.26-.43-.34c-.42-.22-1.12-.09-1.12-.86a.77.77,0,0,1,.1-.25,2.13,2.13,0,0,1,1.12-.58c.16-.05.33-.1.35-.3a.33.33,0,0,0-.29-.34c-.77-.19-1-.82-1.16-1.44a3,3,0,0,0-1.2-.81c-.19-.12-.41-.25-.34-.53s.28-.25.46-.29c.54-.12,1.07-.28,1.61-.38a2.35,2.35,0,0,0,1.3-.35c.37-.27.41-.5-.08-.67-.33-.11-.73-.1-.89-.51a.66.66,0,0,1,.26-.76,5.09,5.09,0,0,1,2-.17H289c1.08,0,2.16.12,3.07-.73.44-.41,1.14-.25,1.72-.25q11.22,0,22.43,0,12.4,0,24.8,0a9.1,9.1,0,0,1,1.38,0,1.16,1.16,0,0,1,1.06,1c.25,2.19.87,4.3,1.12,6.48a4,4,0,0,1,0,.77,25.28,25.28,0,0,0-.79-5.11c-.38-2-.27-2.22,1.8-2.23h32.3c1.29,0,2.56.23,3.85.25a1.75,1.75,0,0,1,1.52.77,52.63,52.63,0,0,1,2.17,6.94c.94,3.35,1.94,6.68,2.8,10a14.56,14.56,0,0,1,.39,1.71c0,1.6.76,3,1,4.57a23.74,23.74,0,0,0,.95,3.59c-.3,1.4.42,2.63.69,3.93.53,2.57,1.17,5.13,1.86,7.66,1.07,3.87,2,7.78,3,11.67s2.05,7.82,2.92,11.78c.77,3.56,1.71,7.09,2.64,10.62.64,2.42,1,4.89,1.6,7.32a24,24,0,0,1,.62,5.47,2.61,2.61,0,0,1-1.42,2.52c-2.73,1.37-5.43,2.81-8.52,3.28-1.27.19-2.46.71-3.71,1-2.54.57-5.13.88-7.65,1.53a9,9,0,0,0-2.85,1.31,20.4,20.4,0,0,1-5.46,3.07,1.56,1.56,0,0,0-.88.62c-1.2,1.82-3.18,2.32-5.08,2.92a25.31,25.31,0,0,1-3.86.49c-2.86.43-5.72.13-8.57.41-1.63.17-3.28.26-4.92.27a52,52,0,0,1-6.11.08,62.21,62.21,0,0,0-6.69,0,121.73,121.73,0,0,0-12.23.12c-.92.09-1.84-.08-2.76-.08-4.7-.05-9.4.12-14.09.1-1.74,0-3.48-.12-5.22,0s-3.49.13-5.23.22c-2,.11-3.92-.15-5.89-.17a10.32,10.32,0,0,0-1.67.06,9.81,9.81,0,0,1-3.15.07,20.07,20.07,0,0,0-5,.09,6.17,6.17,0,0,1-1.87,0,9.08,9.08,0,0,0-2.85,0c-1.54.15-3-.39-4.61-.21-1.79.21-3.63,0-5.4.16-2.38.19-4.73,0-7.09,0s-4.72,0-7.09.18c-1.92.17-3.86-.15-5.8-.09-3.19.11-6.38-.28-9.56.1-1.41.16-2.83-.11-4.24,0-2.36.14-4.7-.23-7.07-.22s-4.51.31-6.79.12c-2.55-.21-5.11.33-7.69.11s-5,.11-7.59-.06c-1.61-.11-3.28.07-4.92,0a31.07,31.07,0,0,0-5.1.24c-1.54.24-3.08-.21-4.63-.17-3.68.1-7.36,0-11,0-4.05,0-8.09.16-12.13,0-3.16-.11-6.31,0-9.47.06-2.92,0-5.84,0-8.77,0-1.8,0-3.62.19-5.4.1-2.4-.13-4.8.33-7.19-.09a14.71,14.71,0,0,0-2.56.14c-1.7,0-3.4-.11-5.11-.08-1.22,0-2.43.14-3.65.11-3.91-.11-7.83,0-11.74,0-4.44-.06-8.88-.05-13.32.09-2.86.09-5.74-.12-8.58.16-2.51.24-5,0-7.54.64a19.9,19.9,0,0,1-3.63.27,55.7,55.7,0,0,1-8.37-.09,58.25,58.25,0,0,1-6.85-.85,22.74,22.74,0,0,1-7.49-2.7A12.72,12.72,0,0,1,55.07,310a2.93,2.93,0,0,1-.6-1.64A33.1,33.1,0,0,0,53,301.14a2.78,2.78,0,0,0-.17-.56c0-.07-.08-.11-.16-.1s-.11.1,0,0,.06,0,.1,0a1.06,1.06,0,0,1,.18.75c0,1.45,0,2.89,0,4.34a1.12,1.12,0,0,1-.29.91,1.26,1.26,0,0,1-.17-.44,63.52,63.52,0,0,1,.22-9.05,94.09,94.09,0,0,1,1.73-9.25c1-4.23,2-8.47,3-12.69,1.58-6.52,3.21-13,4.77-19.54.14-.61.76-1.35-.08-2C62.22,253.32,62.48,253.36,62.71,253.35Z" fill="#d3d5ea"/><path d="M388.4,230l-.29-1.59c.43-.4,1-.29,1.49-.29a16,16,0,0,1,3,.1c1.95.51,3.09,2,4.24,3.48,2.24,2.92,4.48,5.85,6.65,8.83,1.73,2.36,3.55,4.65,5.26,7a11.7,11.7,0,0,0,3.55,3.24,4.5,4.5,0,0,0,2.56.56,125,125,0,0,0,13.9-1.73,21.48,21.48,0,0,0,2.44-.76,2.21,2.21,0,0,0,1.55-1.53,19.75,19.75,0,0,0,.72-3.66,41.68,41.68,0,0,0,.26-5.9c-.07-3.42.29-6.82.15-10.25-.19-4.59.16-9.19.11-13.79,0-2.23.42-4.46.05-6.69-.11-.7.34-1.36.28-2.05-.32-4,.46-8,.41-12,0-2-.2-3.93-.11-5.9,0-.86.28-1.68.33-2.54.14-2.63.5-5.24.62-7.87.09-1.84,1.3-2.77,2.87-3.38a2.14,2.14,0,0,0,.54-.23c1.94-.84,3.9-1.67,5.83-2.54a36,36,0,0,0,5.26-3c.23-.16.44-.4.76-.41.11.73-.41,1.08-.91,1.37a3.3,3.3,0,0,0-1.57,2.36,20.11,20.11,0,0,0-.21,4.58c0,2.6.34,5.21-.09,7.83a32.6,32.6,0,0,0-.29,4.42c-.12,3.38-.15,6.75-.19,10.13,0,2.85.28,5.72,0,8.54s-.23,5.57-.33,8.35c-.13,3.24,0,6.5.15,9.74.07,1.23-.26,2.42-.2,3.64,0,.69.17,1.36.15,2.06a20.76,20.76,0,0,1-.35,4,7.2,7.2,0,0,0,.21,2.84,2.56,2.56,0,0,1-.08,1.55,5.89,5.89,0,0,0-.45,3.09c.08,1-.1,2,0,3,.07.69-.42,1-.95,1.37a21.33,21.33,0,0,1-4.66,1.81c-.13,0-.26.05-.31.2a87.06,87.06,0,0,1-11.18,2.34,267.65,267.65,0,0,1-32.23,3c-.82,0-1.64.1-2.46.16-.38-.13-.46-.53-.68-.8-1.21-3.81-2.11-7.7-3.14-11.56a8.89,8.89,0,0,1-.63-3.06c-.57-2.21-1.08-4.43-1.74-6.61C388.58,231,388.58,230.51,388.4,230Z" fill="#073964"/><path d="M390.58,238.13q1.43,5.37,2.84,10.74c.35,1.3.73,2.59,1.1,3.89q1.51,5.49,2.92,11c.94,3.78,2,7.54,2.89,11.32.67,2.77,1.41,5.52,2.09,8.29,1,3.9,1.91,7.81,2.57,11.78a9.48,9.48,0,0,1,0,2.66,3.14,3.14,0,0,1-1.22,1.54,5.51,5.51,0,0,1-2.14,1.22c-.78.15-1.43.65-2.21.81-1.31.31-2.53.91-3.84,1.22a20.87,20.87,0,0,0-7.87,3.77,7.2,7.2,0,0,0-2.54,4.67,4.92,4.92,0,0,1-2.33,3.37c-.74.5-1.53.91-2.26,1.42a7.34,7.34,0,0,1-3.73,1.16c-1.3.11-2.62.2-3.93.26-6,.3-12,.09-18,.23-10.63.24-21.26.13-31.89.15-5.17,0-10.34,0-15.51,0-3,0-5.93-.15-8.87.05-2.14.14-4.26,0-6.39,0-1.88,0-3.79.07-5.69,0-2.67-.11-5.37,0-8.06.1-2,.07-3.92-.09-5.88-.13-.76,0-1.52.2-2.26.14-2.69-.23-5.38.18-8.06-.16-.76-.09-1.51.19-2.25.16-3.05-.14-6.11.24-9.15-.15a17.48,17.48,0,0,0-2.16.18c-5.62,0-11.24.05-16.86-.11-1.84-.05-3.66.17-5.5.1-4.43-.16-8.86,0-13.29,0-2.16,0-4.34,0-6.51,0-4.86,0-9.73.07-14.59,0-2.48,0-5,0-7.46,0-8.08,0-16.17.08-24.26,0-4.63-.06-9.26.07-13.89,0-5.19-.07-10.4,0-15.59,0-2.54,0-5.07.09-7.6,0-3.86-.17-7.73,0-11.59,0q-3.18,0-6.38,0c-2.22,0-4.45-.08-6.68-.07s-4.53-.07-6.79,0-4.58,0-6.88,0-4.46.32-6.7.22-4.64-.28-7-.51a54.06,54.06,0,0,0-6.06-.7,41.27,41.27,0,0,1-9.34-2.83c-.84-.38-1.34-1.13-2.1-1.56a9.76,9.76,0,0,1-1.18-5.75v-6.4c.56.21.55.68.68,1a32.35,32.35,0,0,1,1.51,7.48,2.15,2.15,0,0,0,.5,1.25,15.3,15.3,0,0,0,7.56,4.33,49.88,49.88,0,0,0,6.64,1.28c1.34.15,2.68.07,4,.28a29.77,29.77,0,0,0,7.06,0c1.88-.14,3.82.05,5.63-.69a1.47,1.47,0,0,1,.88,0c1.75.45,3.43-.3,5.16-.27.58,0,1.16.09,1.75.07,2.26,0,4.51,0,6.77-.18,1.83-.13,3.67,0,5.5,0h13.47c2.39,0,4.78.1,7.16,0a22.25,22.25,0,0,0,4.08-.14c.48-.12,1,.17,1.45.15,2.52-.15,5.06.16,7.55-.05,1.87-.15,3.71.08,5.57,0s4-.06,6,0c2.33,0,4.69.11,7-.06a37.83,37.83,0,0,0,5.21-.2,12.56,12.56,0,0,1,2.44.2c2,0,4.08,0,6.11,0a30.61,30.61,0,0,1,3.69-.15,37.8,37.8,0,0,0,6.2.13c3-.12,6.07.16,9.1.05.84,0,1.69.13,2.54.18a11.63,11.63,0,0,0,3.32-.32,3.45,3.45,0,0,1,1.66,0,10.16,10.16,0,0,0,2.91.07c1.22,0,2.47-.12,3.68-.07a36,36,0,0,0,4,.11c2.45-.19,4.88.21,7.31,0a20.47,20.47,0,0,1,4.42-.15c1.4.2,2.74-.23,4.08-.14,1.72.12,3.5-.34,5.11,0a24.73,24.73,0,0,0,4.61.2c3.29.16,6.6-.11,9.9-.1,1.88,0,3.77-.09,5.63,0a47,47,0,0,0,6.17-.08c2.59-.14,5.18,0,7.76.06,2.24.05,4.47-.26,6.72-.08a19.89,19.89,0,0,0,3.9-.33c.69-.08,1.2.49,1.9.38,2.14-.33,4.29.29,6.41,0s4.21.21,6.28,0c1.79-.19,3.57,0,5.36-.11,1.25-.11,2.52.39,3.79.15,2.31-.43,4.66,0,7-.37a18.25,18.25,0,0,1,2.84.2c3.31,0,6.62-.13,9.94-.16a31.45,31.45,0,0,1,5.9.12,22,22,0,0,0,3.14-.17c2.49.1,5,.11,7.46.07,2.63-.06,5.28.23,7.92-.21.87-.14,1.81.24,2.78.18,2.44-.16,4.89,0,7.33-.22,2-.19,4-.15,6-.23a41.32,41.32,0,0,0,4.7-.29c1.51-.23,3.13.05,4.61-.52,1-.39,2.07-.82,3.08-1.31s1.39-1.29,2.05-1.94c.36-.35.81-.21,1.19-.38a26.22,26.22,0,0,0,4.76-2.83,7.3,7.3,0,0,1,2.79-1.38c2.78-.58,5.59-1,8.36-1.66a51.61,51.61,0,0,0,7.18-2,25.53,25.53,0,0,0,4.78-2.28,2.15,2.15,0,0,0,1-1.9,25.51,25.51,0,0,0-.91-6.84c-.43-1.84-.7-3.72-1.11-5.56-.35-1.53-.79-3-1.21-4.54s-.8-3.08-1.14-4.63c-.41-1.89-.91-3.75-1.37-5.63-.8-3.27-1.46-6.58-2.43-9.8s-1.49-6.62-2.58-9.86c-.46-1.38-.69-2.92-1-4.38-.45-1.94-1-3.88-1.47-5.8a3.89,3.89,0,0,1,0-1.73C390.44,238,390.51,238,390.58,238.13Z" fill="#bfbfc0"/><path d="M440.79,248c-.07-.05-.35-.06-.18-.17a3.67,3.67,0,0,1,1.35-.58,13.81,13.81,0,0,0,3.79-1.55c.64-.29.67-.75.71-1.43.1-2-.53-4,.5-5.9.37-.69,0-1.36-.13-2A7.07,7.07,0,0,1,447,233a2.66,2.66,0,0,0,.1-1,30.72,30.72,0,0,1-.12-4.88,28.66,28.66,0,0,0,.1-5c-.13-2.35,0-4.7-.13-7a32.91,32.91,0,0,1,.27-4.64A8.72,8.72,0,0,0,447,209c-.07-1.09.35-2.08.38-3.16,0-.82-.11-1.62-.12-2.42,0-2.69,0-5.38,0-8.06,0-3,.07-6,.2-9.07.1-2.06.37-4.1.55-6.15a5.18,5.18,0,0,0-.05-1.47,6.87,6.87,0,0,1-.1-2.79c.21-.94-.37-2-.2-3a32.81,32.81,0,0,1,.73-3.41c.15-.58.75-.84,1.21-1.09a3,3,0,0,0,1.2-1.25A37,37,0,0,0,454.3,164a5.88,5.88,0,0,0,1.72-3.64,1.32,1.32,0,0,1,.34-.89q-.08,8.69-.16,17.37-.13,11.66-.3,23.31c-.18,12.87-.4,25.74-.54,38.61a5.12,5.12,0,0,1-2.64,4.71,39.5,39.5,0,0,1-9.45,3.93C442.46,247.65,441.62,247.82,440.79,248Z" fill="#073964"/><path d="M76.11,318.57a69.76,69.76,0,0,1-14.64-2.36c0-.49.36-.33.63-.28,1.88.4,3.77.69,5.65,1.06.51.1,1,.06,1.54.17l.66,0c.57.18,1.17.06,1.74.19l.33.07a39.2,39.2,0,0,0,5.51.42c6.12,0,12.25,0,18.37,0,3.39,0,6.77,0,10.15.06,2,.05,4,0,6-.07a27.11,27.11,0,0,1,4.32.17,25.85,25.85,0,0,0,3.05-.14c2.62,0,5.25.25,7.87.1,3.64-.2,7.27.16,10.91.05,2.79-.08,5.59,0,8.38,0,2.95,0,5.89-.15,8.83-.11,1.83,0,3.67.13,5.5.1,3-.06,6.09.09,9.13-.14a19.54,19.54,0,0,1,3.42.14,15.36,15.36,0,0,0,2.35-.12c2.79-.13,5.56.31,8.36,0a35.61,35.61,0,0,1,4.5,0c2.61.1,5.24-.24,7.85,0,1.87.15,3.72-.09,5.59,0a36.91,36.91,0,0,0,6.48,0c1.24-.16,2.55.21,3.83.11,2.45-.21,4.9,0,7.35-.06s5.09,0,7.64,0,5.17.19,7.74,0c3-.19,6.08.21,9.12-.13,1.46-.17,2.94.23,4.42.13,4.1-.26,8.2.2,12.31,0,1.39-.08,2.81,0,4.22,0,1.83.08,3.66-.07,5.49,0,2.09,0,4.19.14,6.28,0,2.75-.13,5.51.25,8.26-.09a11.85,11.85,0,0,1,1.57.12c2.13.05,4.27-.33,6.38-.12,1.45.15,2.87-.1,4.31,0a31.15,31.15,0,0,0,4.1.05c1.35-.08,2.69,0,4,0s2.62-.1,3.93-.14,2.62.14,3.93.14c2.22,0,4.44-.1,6.67-.11,3.67,0,7.35-.08,11,0,3.34.08,6.69-.07,10-.06,5.93,0,11.85,0,17.77,0a58.17,58.17,0,0,1,6.19-.11c1.71.18,3.42,0,5.12.11s3.33,0,5,0a1.67,1.67,0,0,1,1.21.26c-.15.65-.7.49-1.12.5-5.88.19-11.76.21-17.63.19-10.94,0-21.88,0-32.81,0-3,0-6,0-9,0q-7.54.11-15.09.07-9.92-.06-19.83,0c-10.64,0-21.28,0-31.91,0-6,0-12.05,0-18.08,0H182.81c-6.68,0-13.36,0-20,0-7.07,0-14.14.05-21.2,0-16.26-.12-32.52-.05-48.78-.12-3.76,0-7.51,0-11.26-.09C79.72,318.68,77.92,318.49,76.11,318.57Z" fill="#959596"/><path d="M357.76,318.55c4.9,0,9.81.05,14.71,0a16.41,16.41,0,0,0,4.07-.36.71.71,0,0,1,.42-.23,15.83,15.83,0,0,0,2.06-.13,1.08,1.08,0,0,1,.31-.07,50.39,50.39,0,0,0,14.11-2.93,8.35,8.35,0,0,0,4.58-3.56,5.41,5.41,0,0,0,.76-2.63,10,10,0,0,1,4.88-9.11c.14-.09.22-.24.35-.34.55-.26.67-1.21,1.54-1a54.65,54.65,0,0,1-.14,11.22,5.86,5.86,0,0,1-3.31,4.8,37.82,37.82,0,0,1-11.22,3.3A118.8,118.8,0,0,1,368.27,319c-1.71.17-3.41,0-5.12.07-2.2,0-4.41,0-6.61,0-.33-.21-.19-.32.09-.37S357.4,318.76,357.76,318.55Z" fill="#7d7c7c"/><path d="M357.76,318.55c-.37.45-1,0-1.38.39a4.59,4.59,0,0,1-1.65.1h-7.27a1.89,1.89,0,0,0-1,.09l-4.33,0c-2.86,0-5.72,0-8.59,0h-216c-.39,0-.78,0-1.18,0-7.69,0-15.39,0-23.08-.1-5.39-.09-10.78.05-16.17-.35a2.11,2.11,0,0,1-1-.15,14,14,0,0,1,4.57-.14c.5,0,1,.12,1.56.12q24.06,0,48.11,0a36.19,36.19,0,0,0,5.5.11,45.91,45.91,0,0,1,4.69,0c2.08-.08,4.2.05,6.3.08,3.28.06,6.57,0,9.85,0,4.32,0,8.63.06,12.95,0,3.67-.07,7.34-.07,11,0,5.37,0,10.73,0,16.09.05,12.91,0,25.83,0,38.74,0h61.59c4.68,0,9.35,0,14,0,2.08,0,4.19-.32,6.25-.13s4.25,0,6.35,0l11.24-.05C342.54,318.52,350.15,318.55,357.76,318.55Z" fill="#888889"/><path d="M404.79,298c.22-3.36-.7-6.54-1.44-9.75-.68-3-1.39-6-2.11-9s-1.48-6.14-2.28-9.18-1.53-5.88-2.34-8.81c-.7-2.52-1.34-5-2-7.57a6.25,6.25,0,0,1-.1-1l.4.81c1.67,6.4,3.32,12.82,5,19.22,1.65,6.2,3.24,12.43,4.58,18.71a31.46,31.46,0,0,1,.85,4.73c0,.18-.2-.28-.22,0C405.1,296.87,405.53,297.55,404.79,298Z" fill="#b7b7b8"/><path d="M62.71,253.35c-.14.28-.43.13-.64.22-7-.29-14-.66-20.93-1.39a192.91,192.91,0,0,1-19.59-2.83c1.2-.4,2.32.14,3.45.33q5.41.9,10.86,1.49c3.67.4,7.34.82,11,1.15,2.38.22,4.77.22,7.15.45,2.71.26,5.44,0,8.15.37A.74.74,0,0,1,62.71,253.35Z" fill="#364db3"/><path d="M69.4,317.36c-2.15,0-4.18-.7-6.28-1-.53-.09-1.07-.54-1.65-.11-.28,0-.57,0-.78-.22,0-.06.1-.11.15-.08s.21,0,.09,0c-.68-.15-1.34-.41-2-.5A10.75,10.75,0,0,1,54.3,313c-.24-.2-.53-.41-.53-.78.34-.4.56,0,.68.18a4.92,4.92,0,0,0,2.71,1.65A26.73,26.73,0,0,0,63.83,316a7,7,0,0,1,1.22.36c1.16.22,2.36.26,3.51.54C68.86,317,69.33,316.83,69.4,317.36Z" fill="#b0b0b1"/><path d="M346.49,319.14c.3-.31.68-.18,1-.18,3,0,5.91,0,8.86,0l11.89,0a5.13,5.13,0,0,1-.77.12l-20.62.08Z" fill="#959596"/><path d="M404.79,298c.47-.73,0-1.54.28-2.34.09.19.19.38.29.57.06.66.13,1.32.19,2-.64.07-.82.76-1.35,1a.4.4,0,0,1-.57,0A5.69,5.69,0,0,0,404.79,298Z" fill="#969596"/><path d="M58.9,315.42c.82-.27,1.46.35,2.26.36-.15.26-.33.17-.47.21A3.74,3.74,0,0,1,58.9,315.42Z" fill="#959596"/><path d="M54,17.2a8.11,8.11,0,0,1,4.25-5.39c4.25-2.26,8.87-3.28,13.55-4.09,6.85-1.19,13.77-1.14,20.68-1.14q79.38-.07,158.77-.09,59.43,0,118.86.1c7.32,0,14.61.36,21.76,2.12a44.71,44.71,0,0,1,6.75,2.2c2.35,1,4.44,2.31,5.61,4.71a2.64,2.64,0,0,1,.65,1.45,20.2,20.2,0,0,0,.9,3.82c.7,3.26,1.4,6.54,2.13,9.8.68,3,1.3,6,1.92,9,.74,3.63,1.3,7.3,2,10.93.48,2.45.83,4.92,1.21,7.38a25.46,25.46,0,0,1,.37,5.39,4.1,4.1,0,0,1-2.1,3.27c-1.71,1.09-3.41,2.25-5.54,2.44-.65.06-1.2.56-1.87.58s-1,0-.65-.76c.51-.57,1.37-.58,1.87-1.23-4.18.8-8.37,1.41-12.56,2.1a3.11,3.11,0,0,0,1.22.29,4.44,4.44,0,0,0,2.55-.17c.81-.18,1.65,0,2.48-.16a.47.47,0,0,1,.55.29c0,.64-.49.85-1,.91-3.15.32-6.28,1-9.48.8a2.34,2.34,0,0,0-.59,0c-2.51.51-5-.1-7.55.06a1.41,1.41,0,0,1-1-.24c-.14-.29.08-.42.26-.55a1.51,1.51,0,0,1,1.11-.35c1.65.33,3.16-.43,4.62-.53-1.85.37-3.82-.06-5.8-.07-4.31,0-8.63-.13-12.94,0-3.55.13-7.1.05-10.65,0-5.16,0-10.32,0-15.48,0-4.47,0-8.95.09-13.43.07-4.86,0-9.74,0-14.6,0l-16.4,0c-3.62,0-7.24-.1-10.86,0-8.1.12-16.2,0-24.3.06-6.95,0-13.9,0-20.84,0-5.43,0-10.87.06-16.3,0-6.25-.07-12.51,0-18.76,0-5.89,0-11.79,0-17.68,0-3,0-5.92-.33-8.88-.15-2.6.15-5.19.1-7.79.11-2,0-4,0-6-.15-1.35-.07-2.69.06-4,0q-6.16-.15-12.35,0c-1.12,0-2.23,0-3.35,0-3.35,0-6.71,0-10.06,0-4.74-.08-9.48,0-14.22,0-10,0-19.89,0-29.84,0-2.37,0-4.74-.11-7.1-.11-2.87,0-5.73-.11-8.59-.13a89.56,89.56,0,0,1-11.68-.73c-2.31-.31-4.63-.55-6.93-.94a2.78,2.78,0,0,0-2.91.95,3.32,3.32,0,0,1-2.3-.32,12.61,12.61,0,0,1-4.91-3,3.2,3.2,0,0,1-.93-2.3,44.44,44.44,0,0,1,.69-8.14c.59-3.62,1.12-7.26,1.74-10.88.31-1.77.74-3.53,1-5.31.48-2.91,1-5.82,1.7-8.7.9-4,1.46-8.07,2.76-12C53.85,18,53.81,17.6,54,17.2Z" fill="#201f1f"/><path d="M439,173.12a2.35,2.35,0,0,1-1.28.88,3.14,3.14,0,0,0-1.89,3c-.23,3.26-.51,6.51-.86,9.76a18.7,18.7,0,0,0,0,4.67,16.46,16.46,0,0,1-.08,5,36.5,36.5,0,0,0-.24,7.24,7,7,0,0,1-.3,2.92c-.22.57.16,1.08.12,1.65-.27,4.48,0,9-.27,13.46-.12,2.32.06,4.61.09,6.91s-.33,4.59-.22,6.89c.1,2-.16,4-.16,6a21.12,21.12,0,0,1-.84,6c-.36,1.22-1.32,1.57-2.38,1.94a45.81,45.81,0,0,1-7.86,1.5c-2.16.35-4.38.34-6.53.7a9,9,0,0,1-3.64-.3,5.42,5.42,0,0,1-2.12-1.44,39.71,39.71,0,0,1-4.37-5.3c-2.21-2.75-4.16-5.7-6.38-8.46-1.18-1.47-2.26-3-3.43-4.54-.89-1.14-1.62-2.5-3.27-2.77-.13,0-.22-.22-.34-.34a1.47,1.47,0,0,1,1.35-.35c.49.1.94-.1,1.42,0,.5.57.78.52,1.22-.17a8.78,8.78,0,0,0,1.18-2.59c.13-.47.46-.74,1-.28s2.38-.22,2.48-1.12c.17-1.49.32-3,.4-4.47.17-3.15.33-6.28,1.57-9.25a19.67,19.67,0,0,0,.62-2.46,4.43,4.43,0,0,1,.91-2.14,2,2,0,0,0,.48-1.16,11.87,11.87,0,0,1,.89-3.21,3.41,3.41,0,0,0,.28-1.53,3.89,3.89,0,0,1,.62-2.62c.5-.72-.14-1.6.16-2.39.1-.26,0-.57.14-.86.52-1.64,1.21-3.29.83-5-.23-1,.49-1.69.57-2.55.13-1.32,1.07-2.51.66-3.93a.83.83,0,0,1,.25-.91,11.13,11.13,0,0,1,2.78-1.79c5-1.62,10.26-2,15.31-3.33a77.64,77.64,0,0,0,10.13-3A2.29,2.29,0,0,1,439,173.12Z" fill="#073964"/><path d="M336,145.25c.06-2.86.27-5.71.2-8.57,0-.26,0-.54.18-.74.19-1.42,1.23-2,2.41-2.43a15.55,15.55,0,0,1,5.44-.8q28.85,0,57.67,0a9.6,9.6,0,0,1,4.24.54c1.16.37,2.44.42,3.4,1.31,1.24,4.67,1.88,9.45,2.68,14.19.1.59.3,1.14.4,1.73a2.26,2.26,0,0,1-1.05,2.45,17.75,17.75,0,0,1-1.86.64,2.58,2.58,0,0,0-2,2,13,13,0,0,0-.65,4.37,20.67,20.67,0,0,1,0,2.36,1,1,0,0,1-1.07,1H404.7q-30.42,0-60.85,0a13.22,13.22,0,0,1-4.82-.87,2.32,2.32,0,0,1-1.65-2c-.38-2.86-.83-5.71-1.06-8.59-.14-1.86-.43-3.71-.47-5.58C335.84,145.92,335.75,145.56,336,145.25Z" fill="#d9d9d9"/><path d="M45.88,130.62a57.28,57.28,0,0,1,1.25-16.92c.41-1.89.8-3.78,1.12-5.69a3.36,3.36,0,0,1,2.34-2.78c.21-.08.41-.19.62-.29,1-.91,2.37-.65,3.58-.87a6.83,6.83,0,0,1,1.28,0h57.31a15.17,15.17,0,0,1,5,.72,2.33,2.33,0,0,1,1.5,1.19,2.62,2.62,0,0,1,.23,1.24c-.21,3.37-.48,6.74-1,10.08a24,24,0,0,0-.3,2.64c-.07,1.87-1.29,2.69-2.72,3.39a8.12,8.12,0,0,1-1.7.5,2.12,2.12,0,0,0-1.73,2.12c-.08,1.75-.65,3.49,0,5.27.22.6-.18,1-.82,1.07a6.67,6.67,0,0,0-1.66.2,10.45,10.45,0,0,1-1.77.07H52.59a20.54,20.54,0,0,1-4.69-.5A2.54,2.54,0,0,1,45.88,130.62Z" fill="#dcdcdd"/><path d="M53.79,69c.57-1.45,1.84-1.37,3-1.15,1.7.32,3.43.51,5.14.76s3.56.33,5.32.6c1.53.24,3.08.2,4.61.3,2.51.17,5,0,7.56.1,2.37.14,4.74.08,7.11.13,5.67.12,11.36,0,17,0h29.29c2.37,0,4.75-.07,7.11,0,2.7.11,5.41.07,8.1,0,4,0,8.1-.09,12.14,0,1.88,0,3.79.06,5.66,0s3.82.24,5.75.05a32.08,32.08,0,0,1,3.79,0c2.15,0,4.32-.25,6.47-.14,5.77.31,11.54.11,17.31.15,4.94,0,9.89,0,14.83-.06,2.61,0,5.23,0,7.83,0s5,.12,7.49.06c2.73-.07,5.47,0,8.2,0,2.89,0,5.78,0,8.66,0q5.85,0,11.7,0c2.85,0,5.7,0,8.55,0,5.67,0,11.33,0,17,0h28c3.46,0,6.91.06,10.37,0,3.13-.09,6.26.07,9.4,0,2.21-.06,4.47.12,6.68,0,3.39-.17,6.76,0,10.14,0,2.73,0,5.44-.22,8.19-.08s5.54.14,8.3,0c4.54-.2,9.07-.1,13.6-.13,2.55,0,5.1.12,7.64.18a1.92,1.92,0,0,1,1.07.33,9.07,9.07,0,0,0-3.62.81c-.29.17-.7,0-1.06-.07a2.57,2.57,0,0,0-2.49.51c-.75.72-1.69.23-2.61.45a19.36,19.36,0,0,1,5.95.26,8.65,8.65,0,0,1,1.24.31c1.53.63,1.7,2.08.36,3.12-6.22.29-12.44.19-18.66.2q-106.25,0-212.5,0-36.6,0-73.2-.11c-4.34,0-8.69,0-13-.36a28.26,28.26,0,0,1-4.58-.58c-1-.22-1.42-.62-1.35-1.48A1.73,1.73,0,0,0,60,71.5a32.82,32.82,0,0,0-3.64-1.17,10.64,10.64,0,0,1-1.85-.64C54.18,69.54,53.77,69.47,53.79,69Z" fill="#201f1f"/><path d="M329.7,88.14c.07-2.33.17-4.67.19-7A3.06,3.06,0,0,1,332,78.05a10.51,10.51,0,0,1,3.75-.73q21.59-.06,43.17-.07c5.17,0,10.34,0,15.51.1,1.89,0,3.82.34,5.22,1.9a72.81,72.81,0,0,1,2,9.8c.14,1,.39,1.92.54,2.89A2.49,2.49,0,0,1,400.61,95a12.09,12.09,0,0,1-1.85.69,2.47,2.47,0,0,0-1.83,2,6.42,6.42,0,0,0-.18,2.92,5.27,5.27,0,0,1,.1.88c.07,1.38-.24,1.73-1.6,1.73-4.31,0-8.61,0-12.92,0a4.88,4.88,0,0,0-1.57.16,8.06,8.06,0,0,1-1.47.08q-20.44,0-40.87,0a20.33,20.33,0,0,1-5.37-.68,2.91,2.91,0,0,1-2.33-2.69c-.48-3.32-.75-6.66-1.1-10A5.39,5.39,0,0,1,329.7,88.14Z" fill="#d8d8d9"/><path d="M237.57,85c.06-1.35.19-2.7.17-4a2.8,2.8,0,0,1,1.94-2.79,10.13,10.13,0,0,1,4-.84q20,0,40-.07c6.05,0,12.11,0,18.17.06a8.93,8.93,0,0,1,2.52.36c.62.15.77.66.88,1.18a39.48,39.48,0,0,1,.78,6,32.33,32.33,0,0,0,.41,5.19,7.9,7.9,0,0,0,1,2.67,1.79,1.79,0,0,1,.09,2,1.17,1.17,0,0,1-.66.56,2.39,2.39,0,0,0-1.61,2.23,13.08,13.08,0,0,0-.05,3.8c.08.64.23,1.31-.39,1.81a.93.93,0,0,1-.33.12c-1.83.08-3.67,0-5.5,0a4.71,4.71,0,0,0-1.35.16,9.61,9.61,0,0,1-1.78.09H245.25a20.59,20.59,0,0,1-5.58-.66c-1.75-.49-2-1-2.22-2.76a77.44,77.44,0,0,1-.13-9.87C237.38,88.46,237.41,86.72,237.57,85Z" fill="#dfdfe1"/><path d="M116.63,134.59l.61.78a42.14,42.14,0,0,1-.26,6.45c-.1,1.73-.49,3.43-.56,5.17a14,14,0,0,1-.75,4,2.65,2.65,0,0,1-2.16,1.8,29.08,29.08,0,0,1-6.39.44q-16.74,0-33.49,0c-5,0-10,0-15,0-3.09,0-6.19-.09-9.29,0a34.09,34.09,0,0,1-5.8-.24,13.64,13.64,0,0,1-1.55-.29c-1.44-.4-1.67-.77-1.45-2.25.2-2.61.79-5.17,1.25-7.75.34-1.93.84-3.85,1.12-5.79a3.81,3.81,0,0,1,2.64-3.12l.74-.28c1.26-.92,2.77-.65,4.18-.88a6.65,6.65,0,0,1,1.18,0h57.45a30,30,0,0,1,4,.34A5.47,5.47,0,0,1,116.63,134.59Z" fill="#d8d7d9"/><path d="M139.94,145.79a6.8,6.8,0,0,1,.19-2.5c.31-.65,0-1.37.2-2v-.34c.28-.66,0-1.37.19-2a12.79,12.79,0,0,1,.26-2.62c.11-1.05.93-1.57,1.73-2.08,1.46-1.2,3.23-1.12,5-1.27q30.61,0,61.24,0a6.91,6.91,0,0,1,4.56,1.05,3.53,3.53,0,0,1,1.75,1.64,16,16,0,0,1,.31,4.36c0,3.25.1,6.49-.17,9.73-.14,1.61-.85,2.71-2.13,3.06a17,17,0,0,0-2.94-.21c-3.52,0-7-.23-10.54-.21-.56,0-1.12-.05-1.68-.05-5.17,0-10.34,0-15.51,0-4.61,0-9.22,0-13.83,0-6.35,0-12.71-.06-19.06,0-2.8,0-5.57-.51-8.37-.46-1.25,0-1.61-.48-1.63-1.73,0-.36,0-.73,0-1.09a2.24,2.24,0,0,1,.06-.52C139.83,147.62,139.71,146.68,139.94,145.79Z" fill="#d7d7d8"/><path d="M238.57,137.9c0-1.12-.12-2.26.78-3.14a4.77,4.77,0,0,1,3.06-1.58,10,10,0,0,1,2.93-.26q27.09,0,54.19,0a13.08,13.08,0,0,1,1.77.05c.57.22,1.13.6,1.75.09a1.31,1.31,0,0,1,1.06,0c.26.15.24.49.51.68,1.2.83,1.13,1.53-.23,2.24.24.52.78.68,1.18,1a1.48,1.48,0,0,1,.76,1.57c-.12.61.43,1.16.26,1.73-.31,1.08,0,2.19-.24,3.26,0,.13-.07.28,0,.39.71,1.36.79,3,1.76,4.23a3,3,0,0,0,1.18.84,5.36,5.36,0,0,1,2.78,2.4c.3.61.34,1.15-.51,1.35-4.31-.17-8.62-.29-12.93-.28-16.46,0-32.93,0-49.39,0a35.19,35.19,0,0,1-5-.34,26.71,26.71,0,0,0-3.34-.28c-1.57,0-2.1-.57-2.19-2.16-.16-2.95-.24-5.91-.19-8.87A16.17,16.17,0,0,1,238.57,137.9Z" fill="#d7d7d8"/><path d="M333.11,107.54l-.05-.2c.12-1.59,1.29-2.21,2.55-2.66a13.73,13.73,0,0,1,4.68-.64H394.6c1.21,0,2.43,0,3.65,0a6.85,6.85,0,0,1,2.79.52,10.5,10.5,0,0,1,3,1.09,6.41,6.41,0,0,1,.78.7,32.21,32.21,0,0,1,1.19,5.14c.1.58.28,1.14.39,1.72a45.84,45.84,0,0,1,1.11,7.46,2.67,2.67,0,0,1-1.52,2.5c-.39.17-.81.29-1.21.43a1.88,1.88,0,0,0-1.48,1.64c0,.3,0,.8-.61.6a1.82,1.82,0,0,1,.25-2.35c.43-.57.19-.76-.37-.8-1.18-.07-2.35-.25-3.54-.25q-25.94,0-51.86,0a73.18,73.18,0,0,1-8.37-.52c-.76-.08-1.51,0-2.27-.07-1.48,0-1.84-.3-2.13-1.77a43.8,43.8,0,0,1-.62-4.7,40.4,40.4,0,0,0-.48-4.11C333,110,333.28,108.77,333.11,107.54Z" fill="#d8d8d9"/><path d="M144.56,90.14a22.85,22.85,0,0,1,.37-3.69c.09-1.77.43-3.53.52-5.3a3.4,3.4,0,0,1,2.77-3.26,13.44,13.44,0,0,1,3.89-.6c19.34-.07,38.69-.11,58,0a6.94,6.94,0,0,1,5.08,1.76,12,12,0,0,1,.49,5.05c-.06,1.87-.06,3.74-.15,5.62-.06,1.11-.2,2.22-.27,3.34a2.06,2.06,0,0,1-1.49,1.79c-1.79.45-3.59.12-5.4.1-6.58,0-13.16,0-19.74,0-11.94,0-23.88,0-35.82,0-2.37,0-4.7-.51-7.06-.68-1-.07-1.21-.52-1.3-1.51S144.67,91,144.56,90.14Z" fill="#d8d8d9"/><path d="M51.2,92.66a76.27,76.27,0,0,1,1.29-8c.24-1.43.61-2.83.87-4.25a2.75,2.75,0,0,1,1.55-2,9.57,9.57,0,0,1,4.56-1.1q22.66-.06,45.32-.07,6.57,0,13.13.08a8.55,8.55,0,0,1,4.44,1.14,2.31,2.31,0,0,1,1.09,2.16,25.66,25.66,0,0,1-.41,4.1,65,65,0,0,1-.94,8A3,3,0,0,1,120.27,95,10.64,10.64,0,0,1,119,94.9a21.73,21.73,0,0,0-5.39-.48c-9.15-.06-18.3-.09-27.45,0q-5.17.06-10.34,0c-5.92,0-11.85,0-17.77-.08a46.36,46.36,0,0,0-5.9-.29C51.24,94.17,51,93.7,51.2,92.66Z" fill="#d8d8d9"/><path d="M213.86,105.36a3.62,3.62,0,0,1,1.41,1.16,7.49,7.49,0,0,1,.35,2.89c0,3.11.23,6.22.11,9.32,0,.73-.19,1.43-.24,2.15a2,2,0,0,1-1.07,1.56c-.51.24-1,.7-1.57.13a6.14,6.14,0,0,0-3.7-1.91,33.67,33.67,0,0,0-5.21-.4c-5.17,0-10.34,0-15.51,0-12.43,0-24.87,0-37.3,0-1.6,0-3.13-.4-4.7-.5-1-.07-1.43-.78-1.16-1.8a5,5,0,0,0-.14-2.9,2.88,2.88,0,0,1-.09-1.17,39.56,39.56,0,0,0,.6-6.34,5.66,5.66,0,0,1,.79-2.82,2.09,2.09,0,0,1,1.26-.5,18.24,18.24,0,0,1,2.95-.23q28.76,0,57.5,0a23.38,23.38,0,0,1,3.34.27A3.68,3.68,0,0,1,213.86,105.36Z" fill="#cdcdce"/><path d="M307.75,104.94a5.29,5.29,0,0,0,.54.25,3.17,3.17,0,0,1,2.27,3c.13,1.76.37,3.5.57,5.26a1.19,1.19,0,0,1,.25.83c0,2.3.36,4.58.13,6.89-.1,1-.82,1.35-1.54,1.75a1,1,0,0,1-.88-.14,5.16,5.16,0,0,0-4.83-2.7c-2.08,0-4.14-.22-6.21-.21q-25.53,0-51.06,0a13.13,13.13,0,0,1-2.93-.36,1.47,1.47,0,0,1-1.25-1.25c-.19-1.53-.93-3.06-.12-4.63a1,1,0,0,0,0-.78c-.72-2.14-.35-4.35-.4-6.54a3.45,3.45,0,0,1,.53-1.78,1.06,1.06,0,0,1,.7-.25q2.55,0,5.1,0a4.11,4.11,0,0,0,1.26-.16,9.61,9.61,0,0,1,1.78-.09h51c1.19,0,2.36.18,3.53.29A2.65,2.65,0,0,1,307.75,104.94Z" fill="#d7d7d8"/><path d="M383.24,211.66a1.61,1.61,0,0,0-1.39-.78c-1.21-.08-2.43-.19-3.64-.19-11.1,0-22.2,0-33.3,0-.83,0-1.3,0-1,1.15.48,1.93.74,3.92,1.1,5.88a3.86,3.86,0,0,1,.09.49c0,.29-.09.53-.42.54s-.34-.26-.32-.48c.19-2.5-.68-4.86-1-7.29-.12-.95-.49-1.3-1.52-1.3q-24.36.06-48.71,0c-.59,0-1.09,0-1.4.66s-.82.33-1.26.33l-22.13,0H141.05l-1.29,0c-.21-.35,0-.74-.09-1.11a6.31,6.31,0,0,1,.67-2.66c4.15-.19,8.3,0,12.45,0H336.36c1.69,0,3.38.07,5.07,0,9.41-.4,18.83-.07,28.24-.17,3.68,0,7.37,0,11.06,0,.57,0,1,.06,1.31.62A7.13,7.13,0,0,1,383.24,211.66Z" fill="#767cdb"/><path d="M146.45,104.92c.22.15.19.32.08.51a4.89,4.89,0,0,0-.49,3.65,1,1,0,0,1,0,.58,29.62,29.62,0,0,0-.6,3.47,5.64,5.64,0,0,0,.28,3.08,2.12,2.12,0,0,1-.08,1.4c-.46,1.28-.12,1.88,1.2,2,11.93.85,23.87.19,35.8.36,7.16.1,14.32,0,21.48,0a38.57,38.57,0,0,1,5.48.45,7.41,7.41,0,0,1,3.16,1.54.84.84,0,0,1,.32.79,2,2,0,0,1-1.5.84,5.47,5.47,0,0,0-1.58.54,1.44,1.44,0,0,0-.77,1.08,20.09,20.09,0,0,0-.14,5c.2,1.82.22,1.82-1.54,2.25a10.5,10.5,0,0,1-1.68.07H148.77a17.12,17.12,0,0,1-4.88-.63c-1.56-.45-2-.91-2-2.5-.11-3.35.22-6.69.27-10,.34-3.65.68-7.3,1-11a3.39,3.39,0,0,1,1.58-2.88C145.24,105.21,145.66,104.55,146.45,104.92Z" fill="#e2e3ee"/><path d="M238.57,137.9c.13,3.93.23,7.87.42,11.79.09,1.78.45,1.77,1.93,1.92,10.86,1.07,21.74.43,32.62.54s21.72,0,32.59.08a27.92,27.92,0,0,1,5.77.33c.22-.13.44-.19.63.05,0,.06,0,.15,0,.18-1.6,1.12-1.37,2.88-1.45,4.46a28.74,28.74,0,0,0,.06,4.82,1,1,0,0,1-.22.92,1.44,1.44,0,0,1-1,.34c-1.52,0-3,.24-4.53.24q-28.93,0-57.86,0a22.38,22.38,0,0,1-6.85-.74c-1.9-.61-2.23-1.1-2.39-3.08a120.75,120.75,0,0,1-.12-12.62c0-1.86.06-3.74.23-5.6C238.51,140.31,238.23,139.09,238.57,137.9Z" fill="#d2d5f8"/><path d="M40.52,150.53c.07,1.62.78,2,3.08,2.26,4.29.51,8.58,0,12.87.16,4.86.15,9.72.09,14.58.06,13.14-.08,26.28,0,39.42-.06a29.07,29.07,0,0,0,3.2-.38,16.67,16.67,0,0,0-.74,4.08,34.42,34.42,0,0,0,.13,5.08c0,.61,0,1.1-.7,1.33a16.17,16.17,0,0,1-3.91.49q-30.67,0-61.34,0a14.25,14.25,0,0,1-5.51-.94,2.2,2.2,0,0,1-1.55-2.08c-.07-3.12.24-6.22.28-9.34C40.38,151,40.32,150.71,40.52,150.53Z" fill="#ccd0fa"/><path d="M333.11,107.54c.25,1.8.51,3.6.73,5.41.3,2.56.41,5.14,1,7.67a1,1,0,0,0,1.15.93c2.43-.09,4.82.37,7.24.46,1,0,2.06.14,3.09.13q26.76,0,53.51,0c1.2,0,2.4.25,3.6.38.23,0,.48.06.52.35s-.23.29-.37.41a2,2,0,0,0-.72,2.59,1.48,1.48,0,0,1,.3,1.1,20.74,20.74,0,0,0,.23,4.38.66.66,0,0,1-.63.9c-.26,0-.51.12-.76.18a8.47,8.47,0,0,1-1.67.09H341.4a18.7,18.7,0,0,1-5.36-.74,2.64,2.64,0,0,1-2.05-2.26,105.31,105.31,0,0,1-1.3-11.87,30.31,30.31,0,0,1,.15-5.21A47.36,47.36,0,0,1,333.11,107.54Z" fill="#dcdef9"/><path d="M309.14,122.73h.77s0,.08,0,.09c-1.75,2.1-1.22,4.58-1.17,7,0,.72.45,1.47-.08,2.17a8.74,8.74,0,0,1-3.68.56H244.76a15.36,15.36,0,0,1-5.33-.87,1.91,1.91,0,0,1-1.36-1.93c-.4-6.06-.07-12.12-.18-18.18a1.22,1.22,0,0,1,.09-.68c.14-1.26-.17-2.57.38-3.79a1.43,1.43,0,0,1,.27,1.3c-.36,4.05.12,8.08.27,12.12,0,.89.65,1.16,1.39,1.27a61.3,61.3,0,0,0,6.77.65c2.44.08,4.88,0,7.31,0a50.83,50.83,0,0,1,5.92.17,28.65,28.65,0,0,0,4.34-.18c3,0,5.92.15,8.88.15,1.87,0,3.75,0,5.62-.11.89,0,1.76.22,2.65.16,2.56-.17,5.14-.21,7.69-.13s5.19,0,7.79,0c3.49,0,7,0,10.47,0A1.82,1.82,0,0,1,309.14,122.73Z" fill="#d2d5f7"/><path d="M144.56,90.14a7.09,7.09,0,0,1,.13,2.43c0,1.14.31,1.39,1.43,1.52,8.89,1,17.81.38,26.71.6,2.65.06,5.31.13,7.94.08,9.24-.17,18.47,0,27.7-.07a30.32,30.32,0,0,0,5.39,0c.06.29-.16.43-.35.53a2.25,2.25,0,0,0-1.13,2.32,40.52,40.52,0,0,0,.1,4.41c.12.91-.47,1.12-1.14,1.28a18.86,18.86,0,0,1-3.44.28H151.23a18,18,0,0,1-5.26-.71,2.27,2.27,0,0,1-2-2.55,37.52,37.52,0,0,1,.38-6.78,14.27,14.27,0,0,1,.14-2.53Z" fill="#d1d5fd"/><path d="M336,145.25c.43,4.93.92,9.85,1.57,14.75a2.5,2.5,0,0,0,2,2.37,15,15,0,0,0,4.15.69,2.63,2.63,0,0,0,1.08.08q30.47,0,60.93,0a37.48,37.48,0,0,0,5.25-.74c.68.12,1.22-.67,1.94-.32.18.75-.33,1.24-.71,1.75s-1,1.18-1.55,1.78c-1.3,1.56-3.21,1.54-5,2-2.53.69-5.13.48-7.7.73a46.89,46.89,0,0,1-4.89,0,19.92,19.92,0,0,0-3.7.37c-.68.13-1.28-.2-1.95-.18a40.53,40.53,0,0,1-5.62,0c-2.45-.28-4.87.21-7.31,0a18.79,18.79,0,0,0-3.31.22,23.17,23.17,0,0,1-5-.23c-.73-.11-1.36.15-2,.1-1.9-.12-3.82-.12-5.7-.08-1.48,0-3-.12-4.48,0-1.7.15-3.46-.27-5.18-.22s-3.47.09-5.21.08a6.07,6.07,0,0,1-6-3.65,1.62,1.62,0,0,0-.54-.69c-1.65-1-2.17-2.78-2.65-4.36a18.34,18.34,0,0,1-.7-5,15.25,15.25,0,0,0-.14-3,7.15,7.15,0,0,1,.7-4.18C334.64,146.54,334.93,145.59,336,145.25Z" fill="#073964"/><path d="M238.35,141.5c0,5.34,0,10.67.07,16,0,1.08.11,2.17.16,3.25,0,.89.69,1.24,1.37,1.5a12.23,12.23,0,0,0,3.65.8c4.9.3,9.8.16,14.7.17q23.76,0,47.51,0a26.37,26.37,0,0,0,5.1-.37,8.63,8.63,0,0,1,3-1,3,3,0,0,1-.83,2.22,11.86,11.86,0,0,1-4.4,3.4,12.68,12.68,0,0,1-4.59.86c-2.16.22-4.34.1-6.49.29-1.47.13-2.93.07-4.37.06-1.93,0-3.86.05-5.78.12-2.5.09-5,0-7.49,0-1.81,0-3.69-.23-5.5-.19-2.16.06-4.34.17-6.49.05s-4,.15-6,0c-2.13-.17-4.23.07-6.36,0-2.66-.14-5.32-.37-8-.35a40.18,40.18,0,0,1-4.52-.17,5.43,5.43,0,0,1-4.14-3,10.11,10.11,0,0,0-1.54-2.25c-.89-.87-.95-2.19-1.18-3.37-.33-1.66,0-3.38-.25-5.05a15.91,15.91,0,0,1,.62-6.18,4.23,4.23,0,0,1,1.3-2.38c.35-.3.25-.65.27-1A15.08,15.08,0,0,1,238.35,141.5Z" fill="#073964"/><path d="M139.75,148.43v.35a6.74,6.74,0,0,0,.06,2.72,5.2,5.2,0,0,1,.07,1.18c0,2.47,0,4.93,0,7.4,0,1.25.26,1.63,1.45,2a16.53,16.53,0,0,0,5.35.79q30.06,0,60.11,0a38.64,38.64,0,0,0,4.42-.32,7.31,7.31,0,0,0,2.12-.41c.31-.09.61-.28.95-.09.78.44.87.87.15,1.54a33.59,33.59,0,0,1-3.17,3.14c-1.38,1-2.94,1-4.46,1.21-1.36.23-2.71.46-4.08.56-1.09.09-2.18-.17-3.31,0a29.88,29.88,0,0,1-5.35.13c-2.08,0-4.17.08-6.25-.05-2.76-.17-5.54.06-8.3.15-1.86.05-3.72-.08-5.57-.19a5.83,5.83,0,0,0-1,.18c-1.43.18-2.87,0-4.29,0-2.05.07-4.07-.28-6.15-.08a41.25,41.25,0,0,1-7-.2,14.09,14.09,0,0,0-2.75-.07,7.29,7.29,0,0,1-2.33,0,5.8,5.8,0,0,0-1.82-.07,15.06,15.06,0,0,1-6.73-1.09,3.34,3.34,0,0,1-1.46-1.3,12.55,12.55,0,0,1-2.28-4.47c-.89-3.66-.18-7.22.46-10.79.22-1.21.66-2.38.78-3.61a.61.61,0,0,1,.36-.45A3.15,3.15,0,0,1,139.75,148.43Z" fill="#073964"/><path d="M40.33,151.18c0,3.06.06,6.12,0,9.18a1.87,1.87,0,0,0,1.38,2,14.36,14.36,0,0,0,4.93.84q31,0,62,0a32.59,32.59,0,0,0,3.81-.4,13.25,13.25,0,0,1,2-.76c.28-.05.55-.22.82,0,.66.39.75.93.21,1.43-1.46,1.32-2.62,3-4.58,3.74a10.88,10.88,0,0,1-3,.72c-3.14.27-6.28.38-9.43.49-2.78.1-5.56.14-8.34.23s-5.35-.15-8-.08c-2.09,0-4.18-.23-6.28.3-.94.24-2-.28-3.09-.3-2.41-.05-4.83.16-7.22-.07s-4.58.21-6.86.18c-1.38,0-2.78-.42-4.19-.33a30,30,0,0,1-3.56-.11c-2.4-.16-4.9.38-7.2-.56A4,4,0,0,1,41,165.64c-.35-.87-.86-1.68-1.27-2.53a4,4,0,0,1-.23-2.48,33.7,33.7,0,0,1,.27-3.66,20.92,20.92,0,0,0,.35-4.66C40.16,151.93,40,151.51,40.33,151.18Z" fill="#073964"/><path d="M309.14,122.73c-3.36,0-6.72-.08-10.08,0-2.25.08-4.49-.09-6.75.09-1.52.12-3.11-.08-4.67-.1-1.84,0-3.68.16-5.52.16-1.62,0-3.24-.14-4.86-.17-1.39,0-2.77.18-4.17.13-2.91-.12-5.84-.13-8.76-.13a34.18,34.18,0,0,1-3.92.18,68.16,68.16,0,0,0-9.26-.16,74.37,74.37,0,0,1-10.76-.64c-1.21-.16-1.8-.32-1.85-2-.09-3.37-.31-6.74-.36-10.12a20.63,20.63,0,0,0,.18-2.94l.21-.76a4.45,4.45,0,0,1,4.36-1.76,17.22,17.22,0,0,0-.35,4.69,7.53,7.53,0,0,0,.5,3.62,1.06,1.06,0,0,1-.06,1c-1,1.64.06,3.21.18,4.81,0,.33.4.48.75.55a14.73,14.73,0,0,0,2.81.38H275c6.18,0,12.36,0,18.54,0,1.83,0,3.65-.07,5.47,0s3.92.05,5.86.22a6.14,6.14,0,0,1,4.18,2.15A.58.58,0,0,1,309.14,122.73Z" fill="#dadadb"/><path d="M383.24,211.66c-.18-1.5-.89-2.87-1.2-4.34,0-.46.22-.57.66-.63a86.82,86.82,0,0,1,11.4-.38,1.51,1.51,0,0,1,.3,0,5.86,5.86,0,0,1,1.64.24c.79.36,0,.94,0,1.42.07,6.21.05,12.43.06,18.65,0,.57,0,1.14-.61,1.43-.23.23-.48.5-.84.38a5,5,0,0,0-1.93,0h-4.62c-.89-3.05-1.76-6.11-2.65-9.16Z" fill="#073964"/><path d="M74,211.26a26,26,0,0,0-1.52,4.88c-1,3.72-2,7.48-3,11.22-.11.37-.28.72-.42,1.09a21.72,21.72,0,0,0-4.19-.2,6.52,6.52,0,0,1-2-.32c-.69-.24-.75-.6-.74-1.16.06-2.32.16-4.64.15-7,0-3-.1-6.07-.14-9.1,0-.94,0-1.88.09-2.81s.52-1.25,1.63-1.4a34.45,34.45,0,0,1,7.25,0c1.14.08,2.28.17,3.41.17.67,0,.91.16.67.84a2.06,2.06,0,0,0-.2,1.15A2.74,2.74,0,0,1,74,211.26Z" fill="#073964"/><path d="M74,211.26a10.33,10.33,0,0,0,1-2.58,2.16,2.16,0,0,0,.33-.48c.51-1.48.51-1.49,2-1.49H106c2.68,0,5.37,0,8.06,0,2.12,0,4.24.13,6.36.19.28.3.15.6,0,.87a2.43,2.43,0,0,0-.28,1.37c0,.56.06,1.15-.48,1.55q-12.84,0-25.67,0c-5.17,0-10.34,0-15.5.05A12.57,12.57,0,0,0,74,211.26Z" fill="#777ddd"/><path d="M51.2,92.66c0,1,.4,1.37,1.2,1.17,1.55-.4,3.07,0,4.59.12.45,0,.91.13,1.36.13H82q15.28,0,30.57,0a25.52,25.52,0,0,1,6.63.59c-.39.8-1.22.86-1.91,1a33.2,33.2,0,0,1-6.46.72q-23.4,0-46.81,0c-1.61,0-3.22,0-4.83.15a1.36,1.36,0,0,0-1.33,1.06,21.8,21.8,0,0,0-.83,2.94,2.89,2.89,0,0,0,0,1.46c.32,1,.19,1.2-.9,1.26l-.59,0a8,8,0,0,1-3.9-.82,1.13,1.13,0,0,1-.78-1.12c0-2.62,0-5.24,0-7.86a.54.54,0,0,1,.11-.37Z" fill="#d9dbf9"/><path d="M384.63,75.69a4.74,4.74,0,0,0,.57-1.12c.27-1.14-.57-1.83-2.1-2a32.92,32.92,0,0,0-5.86-.38.78.78,0,0,1-.75-.35,16,16,0,0,0,3.2-.24,42.8,42.8,0,0,1,5.88.18,4.09,4.09,0,0,0,1.55-.1,7.09,7.09,0,0,1,2.21-.11,28.22,28.22,0,0,0,5.94-.45l2.81-.31c.53-.06,1.06-.11,1.19-.78,0-.09.06-.21.15-.24a8.43,8.43,0,0,1,4-.74c-.12.28-.29.69.26.51,2.23-.75,4.67-1,6.6-2.52.5-.4,1.11-.62,1.61-1.07,1.51-1.38,1.3-3.09,1.2-4.85-.16-2.53-.7-5-1-7.51-.17-1.42-.65-2.8-.8-4.22-.21-2-.69-4-1-5.94s-.68-3.78-1.14-5.65c-1-4-1.62-8-2.63-12-.44-1.75-.79-3.56-1.11-5.35-.21-1.15-.81-2.21-.78-3.41a.26.26,0,0,1,.31.05,4.46,4.46,0,0,1,.74,1.7c1,3.8,2,7.59,2.77,11.42,1,4.83,2.06,9.65,3,14.49s1.82,9.5,2.45,14.29a22.59,22.59,0,0,1,.2,5.81,18.42,18.42,0,0,0,.26,1.94,4.64,4.64,0,0,1-2.82,4.08,11.27,11.27,0,0,1-2.61,1.15A68.46,68.46,0,0,1,384.63,75.69Z" fill="#201f1f"/><path d="M117.84,142.29c.29-.68.74-.79,1.49-.69,1.28.18,2.59.21,3.88.48,1.54.32,2.25,1.17,1.88,2.71a87,87,0,0,0-1.53,11.91,3.66,3.66,0,0,1-2.87,3.59c-1.23.34-2.42.82-3.62,1.24-.35.12-.71.3-.84-.27a1.71,1.71,0,0,1-.07-1.07c.56-3.91.9-7.84,1.3-11.77.16-1.57,0-3.16.06-4.74C117.53,143.2,117.42,142.68,117.84,142.29Z" fill="#073964"/><path d="M215.67,141.52c1.16.43,2.39.06,3.6.33a16.87,16.87,0,0,1,2.24.63c1.12.41,1.33.93,1.11,2.14a14.29,14.29,0,0,0-.19,2.43,69,69,0,0,0-.17,7,20.64,20.64,0,0,1,0,3.77,2.74,2.74,0,0,1-2.23,2.31c-1.3.43-2.57.95-3.89,1.33-.32.1-.61.27-.89-.06a1.62,1.62,0,0,1-.1-1.24,44.36,44.36,0,0,0,.18-6c0-3.77,0-7.54,0-11.31C215.36,142.43,215.25,141.91,215.67,141.52Z" fill="#073964"/><path d="M312.48,152.57h-.58a.92.92,0,0,0-.06-1.1,5.54,5.54,0,0,0-2.76-2.27c-1.62-.73-2-2.23-2.39-3.75-.05-.21,0-.49-.17-.63a1.24,1.24,0,0,1-.25-1.75.4.4,0,0,0-.06-.54c-.39-.38-.23-.78,0-1.18a2.06,2.06,0,0,0,0-2c-.08-.14-.18-.34-.13-.46.55-1.29-.47-1.67-1.26-2.16-.31-.2-.62-.37-.7-.76s-.15-.59.34-.42c.74.26.67-.44.87-.77s-.18-.54-.45-.7-.88-.27-.61-.89c.73-.53,1.56-.17,2.33-.3,1,0,2-.18,2.8.53.19.24.49.16.73.22,1.79.52,3,1.48,3.17,3.52.12,1.64.43,3.26.47,4.91a1.45,1.45,0,0,1,.26,1,32.67,32.67,0,0,0,.36,4.3,3.77,3.77,0,0,1-.05,1.38,1.66,1.66,0,0,0,0,1A2.27,2.27,0,0,1,312.48,152.57Z" fill="#d6d6d7"/><path d="M401,104.56c-18-.49-36.08-.12-54.11-.21a82.13,82.13,0,0,0-9.28.18,8.34,8.34,0,0,0-2.1.49,3.6,3.6,0,0,0-2.49,2.32c.13-1.06-.79-1.5-1.28-2.19-1.73-2.44-3.58-4.84-3.28-8.11.16-1.78-.35-3.57,0-5.36a10.11,10.11,0,0,1,1.2-3.54c.19,1.73.37,3.45.57,5.17.28,2.45.57,4.89.85,7.34a2,2,0,0,0,1.56,1.7,15.46,15.46,0,0,0,5,.77q21.58,0,43.16,0a2.53,2.53,0,0,1,1.06-.07c4,0,8,0,12,0a36.49,36.49,0,0,0,6.43-.72c.56,0,1.05-.5,1.65-.19a2.8,2.8,0,0,1-1,1.29C400.57,103.81,400.54,104.19,401,104.56Z" fill="#073964"/><path d="M242.93,104.56c-.72.32-1.53.18-2.28.49a11.57,11.57,0,0,0-2.08,1.27c.16-1.18-.62-2-1.2-2.82A9,9,0,0,1,236,98.87c-.25-2.53.35-5,.43-7.51a3.47,3.47,0,0,1,.4-1.51,8.68,8.68,0,0,0,.56-4.12c0-.26,0-.53.18-.74,0,3.68,0,7.37.05,11.06,0,1.57.14,3.15.17,4.73,0,1,.64,1.3,1.39,1.56a15.23,15.23,0,0,0,5,.78q26.72,0,53.44,0c1.95-.16,3.91,0,5.86-.07a2.2,2.2,0,0,0,1.05-.09l.21,0a20,20,0,0,1,3.95-1,6.09,6.09,0,0,1-.88,1.6,1.09,1.09,0,0,0-.11,1.35,23.33,23.33,0,0,0-5.47-.59H250.72l-.89,0c-1.72.17-3.45,0-5.18.08a2.85,2.85,0,0,0-1.16.09Z" fill="#073964"/><path d="M313.86,142.1c.07-.19,0-.57.3-.5a27.82,27.82,0,0,1,4,.67A2.54,2.54,0,0,1,320,145c0,1.21,0,2.43,0,3.65a75.81,75.81,0,0,0,.77,8.09c.25,1.83-.07,2.63-1.78,3.35-1.32.56-2.69,1-4,1.53a.41.41,0,0,1-.52-.16c-.27-.31-.19-.67-.17-1,.1-2.5,0-5,0-7.48,0-3.43-.3-6.83-.48-10.25A1.06,1.06,0,0,1,313.86,142.1Z" fill="#073964"/><path d="M121,112.27c1.17-.51,2.32,0,3.47.1a5.15,5.15,0,0,1,2.06.58,1.55,1.55,0,0,1,.93,1.86A66.84,66.84,0,0,0,126.11,125a20.59,20.59,0,0,1-.4,2.71,2.27,2.27,0,0,1-1.41,1.53c-1.39.57-2.84,1-4.26,1.5-.32.12-.58.17-.64-.28a1.17,1.17,0,0,1-.09-1,102.4,102.4,0,0,0,1.38-16A1.37,1.37,0,0,1,121,112.27Z" fill="#073964"/><path d="M412.1,141.91c.53-.51,1,0,1.59,0a6.78,6.78,0,0,1,2.76.62,2.31,2.31,0,0,1,1.37,2c.49,4.16,1.48,8.22,2.12,12.35.28,1.79.39,2.42-1.79,3.23-1.25.47-2.5,1-3.74,1.44-.35.13-.66.15-.75-.32a1.79,1.79,0,0,1-.28-1.31c0-2.75,0-5.5,0-8.24a2.63,2.63,0,0,0-.1-1c-.39-2.55-.81-5.09-1.33-7.62C411.89,142.7,411.76,142.28,412.1,141.91Z" fill="#073964"/><path d="M215.88,113.05c.11-.75.42-1,1.27-.84a14.88,14.88,0,0,1,3.28.45c1.65.67,1.92.94,1.73,2.68a70.91,70.91,0,0,0-.38,8.24c0,.89,0,1.78,0,2.66,0,2.27-.23,2.67-2.31,3.45-1,.38-2.15.59-3.17,1-.32.13-.59.17-.65-.28-.37-1.2,0-2.4,0-3.6a3.73,3.73,0,0,0,.12-.58c0-3.92,0-7.84,0-11.75a1.67,1.67,0,0,0-.06-.39C215.68,113.74,215.55,113.35,215.88,113.05Z" fill="#073964"/><path d="M144.51,90.92c-.06,3.12-.12,6.24-.16,9.36,0,1.45.23,1.72,1.61,2.17a14.75,14.75,0,0,0,4.56.69q29.07,0,58.13,0c.95,0,1.9-.12,2.85-.18s1.52-.66,2.35-.77c.34,0,.68-.27,1,0,.53.9-.2,1.38-.67,1.92-.34.39-.67.71-.33,1.25a12.48,12.48,0,0,0-5.18-1H150.22a9.69,9.69,0,0,0-3.77.56c-.65,0-1.13.51-1.75.62a1.72,1.72,0,0,0-.29-1.85c-1.22-2-1-4.21-.88-6.39.16-2,.74-3.88.77-5.86A.53.53,0,0,1,144.51,90.92Z" fill="#073964"/><path d="M53.79,69a7.89,7.89,0,0,0,2.88,1.17,23,23,0,0,1,3.8,1.29,1.55,1.55,0,0,1,1.08,1.92c-.18.75.48,1.2,1.12,1.51-5.27-.71-10.42-1.76-15.1-4.49a4.76,4.76,0,0,1-2.45-4.47A72.81,72.81,0,0,1,46.37,53c1.24-7.68,2.74-15.32,4.31-22.93a118.06,118.06,0,0,1,2.87-11.88,2.27,2.27,0,0,1,.43-1A7,7,0,0,1,53.42,20a36.42,36.42,0,0,0-1,4.38c-.35,2.19-.89,4.34-1.33,6.51-.63,3.13-1.31,6.25-1.8,9.41-.42,2.73-1.12,5.41-1.56,8.14a14.46,14.46,0,0,1-.31,3c-.62,1.54-.55,3.2-.87,4.79a32.69,32.69,0,0,0-.49,8,1.7,1.7,0,0,0,.6,1.09A12,12,0,0,0,53.79,69Z" fill="#22274f"/><path d="M51,93.09c0,2.55,0,5.1,0,7.65a1.42,1.42,0,0,0,1,1.55,8.43,8.43,0,0,0,3.53.69A2.44,2.44,0,0,0,57,103a8.85,8.85,0,0,1,2.35-.18q27.08,0,54.15,0a50.58,50.58,0,0,0,5.22-.3c.9,0,1.73-.55,2.66-.38a.75.75,0,0,1-.07,1,16.18,16.18,0,0,0-1.19,1.66,1.21,1.21,0,0,0-.12,1.26c0,.09-.1.11-.18,0-.85-1.15-2.18-1.3-3.41-1.52a17.54,17.54,0,0,0-3.24-.23q-28.35,0-56.69,0a20.34,20.34,0,0,0-5.27.58.8.8,0,0,0,.08-.83,5.47,5.47,0,0,1-.53-3.2c.17-2,0-4,.06-5.92C50.83,94.36,50.6,93.68,51,93.09Z" fill="#073964"/><path d="M311.26,113.43c-.12-1,.38-1.28,1.32-1.19a10.32,10.32,0,0,1,2.87.65,1.73,1.73,0,0,1,1.19,1.76,83.5,83.5,0,0,0,.45,8.94,16.85,16.85,0,0,0,.3,3.31,1.93,1.93,0,0,1-1.2,2.35c-1.19.54-2.45.92-3.68,1.38-.63.24-.62-.19-.63-.59a1.74,1.74,0,0,1-.28-1.31c0-3.28,0-6.55-.09-9.82A43.61,43.61,0,0,1,311.26,113.43Z" fill="#073964"/><path d="M123.94,84.2a26.83,26.83,0,0,1,4.45.65c1.07.34,1.43.77,1.27,1.87-.35,2.58-.77,5.15-1.12,7.74-.19,1.32-.32,2.66-.44,4a2.27,2.27,0,0,1-1.52,2.1c-1.19.45-2.41.81-3.62,1.19a.48.48,0,0,1-.61-.17.89.89,0,0,1-.06-.58c.65-3.76.85-7.56,1.29-11.35.16-1.37,0-2.75.07-4.13A1.75,1.75,0,0,1,123.94,84.2Z" fill="#073964"/><path d="M332.84,112.45a88.39,88.39,0,0,0,.84,12.38c.19,1.69.48,3.37.71,5.06a1.61,1.61,0,0,0,1.11,1.36,12.69,12.69,0,0,0,4.92.93q30.79,0,61.61,0c1.39-.08,2.68-.72,4.08-.74a.53.53,0,0,1,.28.18c-.35.5-.9,1-.24,1.63-6.93-.43-13.88-.21-20.82-.23q-20.55,0-41.09,0a16.76,16.76,0,0,0-4.78.55,4.26,4.26,0,0,0-3.07,2.34,1.21,1.21,0,0,0-.44-1.13,9.72,9.72,0,0,1-2.77-4.89c-.24-1.22-.37-2.52-.62-3.74a36.52,36.52,0,0,1-.32-3.74c-.33-3.21.6-6.35.43-9.55C332.66,112.75,332.78,112.6,332.84,112.45Z" fill="#073964"/><path d="M216.05,99.81c.33-.33.19-.75.19-1.13,0-4.4,0-8.8,0-13.21,0-.87.24-1.25,1.1-1.07,1.23.25,2.57,0,3.69.78a1.49,1.49,0,0,1,.65,1.5,25.6,25.6,0,0,0-.27,3.81c.14,1.78-.2,3.53-.2,5.3a24.6,24.6,0,0,1,0,2.72,2.17,2.17,0,0,1-1.47,2.09c-1.07.4-2.17.71-3.25,1.06-.31.1-.59.21-.66-.26A1.38,1.38,0,0,1,216.05,99.81Z" fill="#073964"/><path d="M406.53,112.65c.06-.15.12-.37.3-.35a7.61,7.61,0,0,1,3.79,1.15,2.19,2.19,0,0,1,.73,1.54q1,5.74,2,11.47c.34,1.76-.21,2.78-1.91,3.3-1,.31-2.07.64-3.09,1-.18.06-.32.07-.44-.09s-.13-.55-.13-.85a89.37,89.37,0,0,0-.14-9.11c-.05-.52-.19-1-.29-1.53-.54-1.88-.46-3.87-1-5.75A.75.75,0,0,1,406.53,112.65Z" fill="#073964"/><path d="M308.7,85.56c.08-1.19.07-1.15,1.29-1a5.72,5.72,0,0,1,2.44.56,1.73,1.73,0,0,1,1,1.7c-.16,2.7.42,5.34.43,8a16.75,16.75,0,0,0,.35,2.8,2.41,2.41,0,0,1-1.53,3c-.92.4-1.9.66-2.85,1-.3.11-.5.12-.56-.25a1.5,1.5,0,0,1-.28-1.12c0-2.2,0-4.4,0-6.6s-.23-4.31-.49-6.45A2.11,2.11,0,0,1,308.7,85.56Z" fill="#073964"/><path d="M309.32,133.44a11.46,11.46,0,0,0-2.74-.25,12.48,12.48,0,0,0-3.81,0,9.55,9.55,0,0,1-1.85-.14H245.85a1.47,1.47,0,0,0-.77.09,9.62,9.62,0,0,0-5.73,1.57,1.58,1.58,0,0,0-.44-1.24,3.6,3.6,0,0,1-1-3.24,2.94,2.94,0,0,0-.33-2.47c-.35-.5-.08-1,0-1.52a32.34,32.34,0,0,0,.17-5.11c0-3.09,0-6.19,0-9.28,0-.34-.13-.73.18-1,0,5.07,0,10.14,0,15.2,0,1.22.11,2.43.16,3.64a1.71,1.71,0,0,0,1.29,1.66,16.11,16.11,0,0,0,5.33.84l47.19,0c3.85,0,7.7,0,11.55,0a21.35,21.35,0,0,0,5.17-.44c.45-.31.9-.56,1.43-.16C309.71,132.16,309,132.55,309.32,133.44Z" fill="#073964"/><path d="M401.23,84.76a3.24,3.24,0,0,1,4.38,2.84c.58,3.51,1.24,7,1.88,10.5a2,2,0,0,1-1.41,2.63c-.88.32-1.8.58-2.69.9-.46.17-.58,0-.58-.44,0-.59,0-1.18,0-1.78-.36-.41-.25-.91-.27-1.39-.08-1.88.19-3.77-.25-5.63-.51-2.15-.73-4.35-1.2-6.51A1.22,1.22,0,0,1,401.23,84.76Z" fill="#073964"/><path d="M142.12,119.37c-.05,3.08-.11,6.17-.13,9.26,0,2.19.31,2.6,2.42,3.11a14.88,14.88,0,0,0,3.51.45q29.91,0,59.83,0c1.79-.24,3.6-.43,5.37-.82.38,0,.77-.22,1.14,0-.3.35-.6.7-.91,1-.46.49-.62,1-.07,1.53a11.45,11.45,0,0,0-4.33-.78,2.28,2.28,0,0,0-1.07-.08q-29.77,0-59.56,0a2.28,2.28,0,0,0-1.07.08,12.85,12.85,0,0,0-4.73,1c.27-.35.07-.7,0-1a22.11,22.11,0,0,1-.62-8.83c.1-1.31,0-2.63.07-3.94C141.94,120.05,141.81,119.66,142.12,119.37Z" fill="#073964"/><path d="M116.63,134.59c-2.26-1.37-4.78-1.55-7.32-1.55H52.13a28.12,28.12,0,0,0-5.86.56c.3-.52,0-1-.14-1.46a3.9,3.9,0,0,1-.25-1.51A5.28,5.28,0,0,0,49.09,132a19.45,19.45,0,0,0,2.85.24h58.37a44,44,0,0,0,6.55-.85c.38,0,.78-.21,1.15.06-.17.83-1.07,1.07-1.43,1.8C116.29,133.77,116.24,134.14,116.63,134.59Z" fill="#073964"/><path d="M117.84,142.29c.23,6.16-.69,12.23-1.42,18.31a4.1,4.1,0,0,1-.19.66l-1,.8a13.45,13.45,0,0,1-2.78.75c.24-.21.53-.42.36-.81a6.09,6.09,0,0,1-.16-1.64c-.33-2.15.11-4.27.19-6.4,0-.67.58-.91.81-1.39a2.79,2.79,0,0,0,1.9-2c.59-2.67.59-5.42,1-8.11.39-2.35.1-4.75.63-7.07a4.34,4.34,0,0,1,.54,2.61C117.88,139.41,117.83,140.85,117.84,142.29Z" fill="#969de1"/><path d="M404.77,17l-.17,0-.39-1.38a13.89,13.89,0,0,1,2.35,1.92A11.19,11.19,0,0,1,408.11,21c1.61,5.22,2.68,10.59,3.93,15.9.82,3.47,1.51,7,2.18,10.47.85,4.39,1.72,8.78,2.37,13.2.31,2.08.78,4.2.27,6.34a2.09,2.09,0,0,1-.49,1,15,15,0,0,1-7.44,4l2.38-1.17A18.12,18.12,0,0,0,414,68.93a4.8,4.8,0,0,0,1.72-4.86c-.81-5.63-1.83-11.22-2.95-16.8-.9-4.51-1.76-9-2.76-13.51a102.49,102.49,0,0,0-3.76-14.18A10.83,10.83,0,0,0,404.77,17Z" fill="#073964"/><path d="M123.94,84.2c.21,4.94-.52,9.81-1,14.69a7.75,7.75,0,0,1-.57,2.68l-1,.61a6.81,6.81,0,0,1-2.38.58.73.73,0,0,1-.26-.41,19.4,19.4,0,0,1,0-6.27,1.3,1.3,0,0,1,1.49-1.24c1.46-.71,1.76-2.12,1.92-3.5.4-3.52.7-7.06,1.06-10.59a2.47,2.47,0,0,0-.8-2.28c1,.29,1.26,1.17,1.36,2C123.85,81.73,123.87,83,123.94,84.2Z" fill="#989fe0"/><path d="M117,131.6a20.52,20.52,0,0,1-6.71.61c.43-.37.94-.15,1.42-.19s.89-.25.62-.87c-.85-1.94,0-3.87,0-5.79,0-1.08.87-1.62,1.9-1.85a9.15,9.15,0,0,0,2.66-1c1.4-.83,1.5-2.18,1.66-3.54.31-2.6.68-5.18.94-7.78.17-1.69.19-3.4.27-5.1a.58.58,0,0,0,.18,0c.55.23.27.88.61,1.21a5.4,5.4,0,0,1,0,2.23c-.46,3.6-.5,7.25-1.3,10.81a3.07,3.07,0,0,1-.83,1.85,4.92,4.92,0,0,0-1.54,4c0,1.48.23,2.93.26,4.41C117.19,130.94,117.31,131.3,117,131.6Z" fill="#b8beee"/><path d="M215.67,141.52c0,5.51,0,11,0,16.53a14,14,0,0,1-.37,3.4c-.35.16-.54.59-1,.62a7,7,0,0,1-2.78.76.8.8,0,0,1-.25-.53c0-2.68-.32-5.38.27-8a1.89,1.89,0,0,1,1.56-1.69,3,3,0,0,0,1.78-2.68c.27-3.33.11-6.67.23-10,.06-1.44-.11-2.86-.06-4.28a1.62,1.62,0,0,1,.42,1.33C215.53,138.47,215.6,140,215.67,141.52Z" fill="#9da3e1"/><path d="M117,131.6c-.15-1.76-.39-3.51-.39-5.28s.28-3.3,1.74-4.46c.72-.56.62-1.49.77-2.27a27.13,27.13,0,0,0,.77-5.42c0-2.34.61-4.58.7-6.88a15.08,15.08,0,0,1,.36,3.91c0,.36,0,.71,0,1.07a104.06,104.06,0,0,1-1.2,16.15c-.08.67-.27,1.34-.4,2a5.67,5.67,0,0,1-1.39,1Z" fill="#959ce0"/><path d="M119.86,209.11c-.39-.86.53-1.42.51-2.2a75.5,75.5,0,0,1,9.15,0c3.6,0,7.22-.12,10.82,0,.18,1-.51,1.8-.38,2.75-.37.57-.85.48-1.26.11a2.65,2.65,0,0,0-2-.61c-1.32,0-2.65-.12-3.95,0-2.88.34-5.76-.09-8.63,0a11.2,11.2,0,0,0-2.94.28C120.71,209.58,120.18,209.67,119.86,209.11Z" fill="#1d2350"/><path d="M308.7,85.56l.05,1.59c.05,1.4.29,2.79.29,4.19a4.29,4.29,0,0,0,.08,1.07,1.8,1.8,0,0,1-1.76,2.25,2.51,2.51,0,0,0-.34-2.1,12.88,12.88,0,0,1-1.17-5.46,23,23,0,0,0-.33-4.67c-.32-1.15-.16-2.4-.52-3.57a2.31,2.31,0,0,0-.61-1.19c2.68.28,3.69,1.51,3.95,4.78C308.42,83.49,308.57,84.52,308.7,85.56Z" fill="#c2c2c8"/><path d="M216.05,99.81c-.06.53-.13,1.06-.2,1.59l-1,.79c-1.13.21-2.17.82-3.36.77.64-.21.74-.53.67-1.27a41.47,41.47,0,0,1,0-5.11c0-1.11,1-1.44,1.74-1.91a2.67,2.67,0,0,0,1.26-2.35c.13-1.52.25-3.08.23-4.58,0-2.49.4-5,0-7.47a11.31,11.31,0,0,1-.07-1.17c1,.85.75,2,.77,3.09.06,5.44,0,10.89,0,16.34C216,99,216.05,99.38,216.05,99.81Z" fill="#a1a7e3"/><path d="M313.86,142.1c.43,5,.8,10,.77,15a27.12,27.12,0,0,1-.19,4.32l-.56.43a7.31,7.31,0,0,1-3,1,30.27,30.27,0,0,1-.18-5.47c0-1,.15-1.94.2-2.92s1-1.3,1.55-1.87a6.24,6.24,0,0,0,1.42-1.34,1,1,0,0,0,.17-1.35.72.72,0,0,1-.17-.44c.43-2.47-.47-4.89-.21-7.35Z" fill="#9da4e4"/><path d="M401.23,84.76a70.52,70.52,0,0,0,1.22,7.52,2.38,2.38,0,0,1-.69,2.5,3,3,0,0,0-.84,2.42c.07,1.51-.07,3,.09,4.53a.74.74,0,0,1-.37.84,8.12,8.12,0,0,1-3.18.56c-5.53.06-11,0-16.58,0,.33-.31.75-.17,1.13-.17h13.32c1.19,0,1.4-.25,1.23-1.46a9.9,9.9,0,0,1,0-3.68,3,3,0,0,1,2.52-2.52,7.59,7.59,0,0,0,1.82-.72A2,2,0,0,0,402,92.31c-.36-2-.81-4-1-6.07-.19-1.83-.91-3.54-1-5.39,0-.55-.53-1-.36-1.6.9,1.14.83,2.58,1.16,3.9A8.22,8.22,0,0,0,401.23,84.76Z" fill="#b4b9ec"/><path d="M307.36,94.66c1-.61,1.86-1.16,1.65-2.72a20.14,20.14,0,0,1-.26-4.79,13.83,13.83,0,0,1,.35,3.2c.31,3.67.26,7.35.21,11l-.57.61a9.07,9.07,0,0,1-3.95,1,2.61,2.61,0,0,0,.12-1.72,11.37,11.37,0,0,1,.35-5.12,1.31,1.31,0,0,1,.8-.81C306.5,95.11,306.93,94.88,307.36,94.66Z" fill="#a3a9e6"/><path d="M406.53,112.65l1,6.34a16.37,16.37,0,0,1,.29,1.84,2,2,0,0,1-.58,1.9,2.79,2.79,0,0,0-.8,2.24c0,1.77,0,3.55,0,5.33a1.64,1.64,0,0,1-.31,1.3,12.87,12.87,0,0,1-4.13.59c.19-.23.47-.17.73-.18s.5-.16.38-.5c-.64-1.85-.18-3.76-.32-5.63s1.49-2.5,3-3a2.22,2.22,0,0,0,1.34-2.28,55,55,0,0,0-1.25-8.18,32,32,0,0,1-.76-4c0-.71-.55-1.34-.39-2.09.82.75.71,1.84,1,2.79C406.08,110.29,406.28,111.48,406.53,112.65Z" fill="#adb2ea"/><path d="M310.14,131.63l-1.43.16a28.4,28.4,0,0,1-.19-7.31c.06-1,.88-1.21,1.39-1.75s1.24-.8,1.32-2c.18-2.27-.29-4.49-.14-6.74,0-.19,0-.39,0-.58h.13a135.43,135.43,0,0,1,.62,16.61C311.68,131,310.86,131.25,310.14,131.63Z" fill="#9aa0e3"/><path d="M214.26,131.41l-1,.2a2.6,2.6,0,0,1-.37-1.51,32.57,32.57,0,0,1,0-5.41,3,3,0,0,1,1.21-2.34c1.59-.73,1.28-2.28,1.32-3.51.13-3.59.06-7.18,0-10.77a13.36,13.36,0,0,0-.17-1.55c.63,1,.43,2.2.54,3.31s.06,2.15.07,3.22v1c.15,2.88.05,5.76.06,8.63a31.15,31.15,0,0,1-.08,4.21,23.34,23.34,0,0,1-.21,3.55A5,5,0,0,1,214.26,131.41Z" fill="#969de1"/><path d="M413.5,150.59c.24.24.17.55.17.83,0,3.28,0,6.55,0,9.83-.25.28-.4.64-.76.81-.59,0-1,.56-1.6.56a62.44,62.44,0,0,1-.25-8.43,1.76,1.76,0,0,1,.39-1.08A7.18,7.18,0,0,0,413.5,150.59Z" fill="#8990dd"/><path d="M413.5,150.59a2.76,2.76,0,0,1-1.78,2.37.15.15,0,0,1-.07-.15c0-.05,0-.07.05-.07.9-1,.68-2.1.42-3.31-.5-2.26-.75-4.57-1.21-6.84s-.59-4.74-1.46-7a1.1,1.1,0,0,1,.1-1c.94.34,1.18,1.15,1.37,2,.39,1.78.79,3.56,1.18,5.34.42,2.47.85,4.94,1.26,7.41C413.43,149.74,413.45,150.16,413.5,150.59Z" fill="#b3b4c0"/><path d="M406.16,131.6c0-2.34,0-4.68,0-7a2.38,2.38,0,0,1,.76-1.93,2,2,0,0,0,.69-2.28,5.24,5.24,0,0,1-.07-1.38,7.64,7.64,0,0,1,.55,3.33c.11,2.45,0,4.9,0,7.35a5.35,5.35,0,0,1-.16,1,4.1,4.1,0,0,1-1.56,1Z" fill="#878edc"/><path d="M400.64,102.57a1.2,1.2,0,0,0,.14-.75,43.17,43.17,0,0,1-.12-5.8,1.83,1.83,0,0,1,.67-1.16,3,3,0,0,0,1.12-2.58,9,9,0,0,1,.36,3.49c0,1.21,0,2.43,0,3.64a2.17,2.17,0,0,0-.14,1.44,1.36,1.36,0,0,1-.62,1.33C401.54,102.2,401.17,102.66,400.64,102.57Z" fill="#878edd"/><path d="M139.75,148.43v-1.8c.07-.27,0-.59.19-.84C139.82,146.66,140.29,147.58,139.75,148.43Z" fill="#d3d6f5"/><path d="M140.33,141.26c-.07.67.25,1.39-.2,2A5.56,5.56,0,0,1,140.33,141.26Z" fill="#d3d6f5"/><path d="M140.53,138.89c-.07.67.24,1.38-.19,2A5.57,5.57,0,0,1,140.53,138.89Z" fill="#d3d6f5"/><path d="M133.63,251.57a22.88,22.88,0,0,1-8.8.4,7.16,7.16,0,0,0-1.85,0,29.16,29.16,0,0,1-8.65-.09,2.29,2.29,0,0,1-1.47-3.54,3.14,3.14,0,0,0,.32-1.39,13.71,13.71,0,0,1,1-4.64,2.18,2.18,0,0,0,.1-1.07c0-.85.25-1.24,1.2-1.19,1.58.08,3.16,0,4.74,0,.59,0,.85-.18.89-.75.06-.76-.53-.43-.82-.44a22.78,22.78,0,0,1-4.2-.54c-.72-.18-1.14-.5-1.07-1.36a23.5,23.5,0,0,1,.92-5,17.27,17.27,0,0,0,.52-3.6c.13-1.84.09-1.84,1.94-2.36.62-.57,1.43-.4,2.15-.57.51-.12,1-.18,1.56-.27.32-.05.57-.19.55-.56a.63.63,0,0,0-.6-.66,14.68,14.68,0,0,0-1.48,0c-.3,0-.59,0-.89,0s-.89-.07-.91-.56.56-.62.94-.6c.9.06,1.77-.15,2.66-.14.43,0,.87,0,1-.6s-.29-.73-.73-.83a3.24,3.24,0,0,1-1.46-.81.66.66,0,0,1,.26-1.21,5.45,5.45,0,0,1,1.84-.29,1.08,1.08,0,0,1,1.1.8c.28.81.31.8.86.13a2.07,2.07,0,0,1,.17-.24c.54-.59,1-.51,1.29.26.09.26.09.56.48.41a2.25,2.25,0,0,1,2.55.79,3.22,3.22,0,0,0,2.45.83c.2,0,.43,0,.47-.25s-.19-.33-.38-.35c-.73-.07-1.3-.66-2.07-.62a.54.54,0,0,1-.64-.46c-.07-.4,0-.8.39-.92a4.42,4.42,0,0,1,2.41-.26c.56.13.68.75.94,1.16.39-.08.45-.44.68-.61s.81-.31,1,.14c.38.86,1,.69,1.64.49.19-.06.37-.14.57-.19.82-.2,1-.05,1.12.79a3.42,3.42,0,0,1,.08,1.65,1.44,1.44,0,0,1-.18.25c-.36.14-1,.14-.4.79,0,.05,0,.19,0,.28.14,1.24.14,1.24,1.37,1.61-1.17.67-2.45.53-3.93.51.75.39,1.49.44,1.92,1,.19.64.19,1.32.35,2a.81.81,0,0,1-.32.86.68.68,0,0,0-.08,1.1c.23.65.27,1.24-.5,1.57h0a1.86,1.86,0,0,0,.06,1.48c.25.64.29,1.28-.47,1.66h0a1,1,0,0,0,.08,1,1.06,1.06,0,0,1-.48,1.57,18.49,18.49,0,0,1-6.41.66,16.35,16.35,0,0,1-3-.26,5,5,0,0,0-1,0l0,.26,4.1.71,4.27.7c1.6.27,1.6.28,1.72,1.9.32.45.33.85-.21,1.16-.18.08-.17.25-.17.41a1.7,1.7,0,0,1-.09,2c-.39.35-.19.76-.11,1.17a1.52,1.52,0,0,1-.57,1.81v.92C134.7,250.7,134.57,251.11,133.63,251.57Z" fill="#323236"/><path d="M157.37,278.85a3.88,3.88,0,0,0,.59,1.37c.13.28.41.49.41.83.07.94,0,1.87.15,2.82a2.53,2.53,0,0,1-1.33,2.33,7.79,7.79,0,0,0-1.36.93,4.85,4.85,0,0,1-2,.77,37.06,37.06,0,0,1-7.4,1.49,6.22,6.22,0,0,1-3.45-1c-.47-.29-.89-.58-.84-1.21a1.48,1.48,0,0,1,.89-1.33,8.42,8.42,0,0,1,2.7-.67,19,19,0,0,0-2.68.48c-2.51.33-5.05.28-7.57.39-1.18.05-2.37,0-3.55.16-1.44.15-2.87-.3-4.33-.17a6,6,0,0,0-1.46.16,22.77,22.77,0,0,1-5-.19,77.34,77.34,0,0,1-10.18-1.14c-1.61-.34-3.28-.17-4.85-.78a18.82,18.82,0,0,1-1.92-.78c-1.74-.9-2-1.39-1.38-3.28.3-.81,1.23-1,1.63-1.74A8.54,8.54,0,0,1,107,277a45.24,45.24,0,0,1,10.22-2.14,105.63,105.63,0,0,1,17.23-.79c5.59.24,11.19.55,16.64,2a14.76,14.76,0,0,1,6,2.59A.75.75,0,0,1,157.37,278.85Z" fill="#deae3f"/><path d="M157.09,278.83c-3.47-2.37-7.49-3-11.52-3.56a100.33,100.33,0,0,0-16.88-.94,103.81,103.81,0,0,0-13.52,1.08,53.39,53.39,0,0,0-8.22,1.84,3,3,0,0,1-2.77-3.76,4.41,4.41,0,0,1,2.26-2.1,31.7,31.7,0,0,1,10.16-2.64,111.88,111.88,0,0,1,32.12.2,25.47,25.47,0,0,1,7.64,2.2,4.18,4.18,0,0,1,2.36,2.59C159.84,276,159.33,277.54,157.09,278.83Z" fill="#dd3e1e"/><path d="M138.17,222.51c0-.56,0-1.12,0-1.67s-.33-.79-.87-.63-.81.27-1.21.4c-.65.2-1.2.22-1.28-.66a.37.37,0,0,0-.37-.38.5.5,0,0,0-.47.3,2.46,2.46,0,0,1-.79,1l-.34-.94c-.24-.66-.65-1-1.36-.7a4.56,4.56,0,0,1-1.27.12c-.41,0-.53.33-.53.7s.28.4.6.31a1.07,1.07,0,0,1,.92.25,1.54,1.54,0,0,0,1.18.36c.49-.1.64.2.65.62a.56.56,0,0,1-.69.63,4.25,4.25,0,0,1-3.1-1.2,1.48,1.48,0,0,0-2.17-.41.57.57,0,0,1-.73,0c-.23-.2,0-.35.08-.51a.44.44,0,0,0-.2-.66c-.29-.15-.51,0-.66.25a5.7,5.7,0,0,1-.32.6c-.21.31-.52.61-.88.54s-.19-.5-.21-.77c0-.63-.31-1-1-.9s-1.17.14-1.75.23a.46.46,0,0,0-.39.39.46.46,0,0,0,.25.49,4.79,4.79,0,0,0,2,.84c.33.06.68.19.43.54s.44,1.34-.6,1.24-2.13.41-3.21.1c-.14,0-.32.06-.47.1s-.46,0-.46.26.27.34.51.35c.82,0,1.64,0,2.46,0s1,.22,1.09.93-.28.83-.92.89c-1.23.11-2.44.36-3.67.55-.29-.36-1,.14-1.08-.4a5,5,0,0,1,.18-2.52,2.55,2.55,0,0,0,.2-1,25.07,25.07,0,0,1,.9-5.5,4.22,4.22,0,0,0,.07-1.07,1.45,1.45,0,0,1,.46-1.33,1,1,0,0,0,.3-.8l.18-2.74.27-1.59a1.27,1.27,0,0,0,1,.14c2.32-.64,4.66-.3,7-.25a18.22,18.22,0,0,0,3.3,0,41.21,41.21,0,0,1,6.39-.09,1.17,1.17,0,0,1,1.1.51c.34.59.76.53,1.25.27a1.35,1.35,0,0,1-.2,1,1,1,0,0,0,0,.73c.34.65.47,1.25-.4,1.6l-2.14.54c.57.51,1.55.36,1.76,1.23a11.85,11.85,0,0,0,.24,1.43,1,1,0,0,1-.47,1.33v0c-.17.3,0,.54.11.82s.34.89-.24,1.18c-.43-1.58-1.52-1.76-2.89-1.38-.4.11-.86,0-1.31.27,1.36.45,2.83.26,4.06,1,.25.21.08.34-.08.48a1.87,1.87,0,0,0,0,1.17C138.65,221.64,138.92,222.15,138.17,222.51Z" fill="#3c3d49"/><path d="M146.49,289.12a39.78,39.78,0,0,0,9.27-2.15,5.84,5.84,0,0,1,1-.46c.61.09,1.16-.6,1.8-.16.45.55-.09.72-.39,1A13.7,13.7,0,0,1,153,289.6a39.28,39.28,0,0,1-6.16,1.61c-3.42.46-6.8,1.28-10.29,1.28-1.17,0-2.34.39-3.5.34-1.57-.07-3.13,0-4.69.07-2,.05-3.92,0-5.87,0-3.13-.16-6.25-.43-9.36-.89-1.48-.22-3-.51-4.43-.77a17.17,17.17,0,0,1-7.11-3c-1-.69-2.16-1.08-2.75-2.28a1.73,1.73,0,0,1,.24-2.29,11.32,11.32,0,0,1,2.25-1.59,4,4,0,0,0,1-.86,2.86,2.86,0,0,1,.15,1.71c-.13,2.28.24,2.9,2.31,3.82a34.55,34.55,0,0,0,8.77,2.28c7.21,1.15,14.49,1,21.76,1a3.18,3.18,0,0,0,1.07-.14c3.25-.09,6.46-.64,9.7-.67A.6.6,0,0,0,146.49,289.12Z" fill="#f5e4cf"/><path d="M136.4,290.1c-.33.31-.75.18-1.13.18-3.55,0-7.11.11-10.66,0a85.64,85.64,0,0,1-10.47-.89,42,42,0,0,1-8.67-2,14.51,14.51,0,0,1-1.71-.75c-1.43-.79-1.89-2.08-1.5-4.22a3.27,3.27,0,0,0,.1-1.16,1.71,1.71,0,0,1,.43-1.19c-.13,2.15-.08,2.35,2,3.27a8.25,8.25,0,0,0,4.54,1,5.05,5.05,0,0,1,1.8.38,50.2,50.2,0,0,0,7.11.87,64.24,64.24,0,0,0,7.85.47h3c.56,0,.9.15.85.78a1.28,1.28,0,0,0,.78,1.25,10.38,10.38,0,0,0,4.86,1.74A.85.85,0,0,1,136.4,290.1Z" fill="#fed27b"/><path d="M317.63,219.75H297.68c-1.25,0-2.48-.2-3.73-.25a2.12,2.12,0,0,1-1.88-1.56c-.67-1.63-.3-3.47-1.23-5-.32-.53.08-1.14.27-1.69a.44.44,0,0,1,.47-.3c.31.05.41.34.47.57a14.82,14.82,0,0,1,.48,3.1,5.81,5.81,0,0,1,0,.59c-.09,2.13.14,2.42,2.72,2.77a67,67,0,0,0,9,.19c11.82,0,23.64,0,35.46,0,.59,0,1.17-.06,1.59.55s.26.78-.36.83c-.94.08-1.88.19-2.82.2Z" fill="#f3f4f5"/><path d="M158.54,286.35c-.64-.07-1.13.55-1.79.37.12-.55.64-.6,1-.77a6.88,6.88,0,0,0,1.82-1.14c1.12-1,1.11-1.54-.06-2.52-.49-.41-1.16-.63-1.43-1.3-.05-.25-.11-.51-.16-.77a10.3,10.3,0,0,1,3.3,2,1.83,1.83,0,0,1-.21,2.65A23.4,23.4,0,0,1,158.54,286.35Z" fill="#b5b4b4"/><path d="M157.09,278.83c.07-.08.12-.18.2-.22,1.84-.92,1.88-2.47,1.47-4.18a3.94,3.94,0,0,1,0-.69,8.3,8.3,0,0,1,1.49.94c1,.9,1,1.69,0,2.59a7,7,0,0,1-2.8,1.58Z" fill="#9d7b6e"/><path d="M104.18,273.49c-.41,1.86,1.32,3.19,2.77,3.76a17.37,17.37,0,0,1-2.53,1C103.24,276.73,103.68,275.11,104.18,273.49Z" fill="#fa644b"/><path d="M134.25,248.64a2.57,2.57,0,0,0,.37-1.83c0-.41-.21-.84.2-1.17a.12.12,0,0,1,.05.13s0,.07-.05.07c-.11.51,0,.84.6.82a3,3,0,0,1,.57.14c.31.07.55.2.58.56a.62.62,0,0,1-.45.68C135.5,248.26,134.87,248.44,134.25,248.64Z" fill="#78777a"/><path d="M133.63,251.57c.91-.45.5-1.32.63-2a5.16,5.16,0,0,1,1.35.18c.29.11.55.23.58.57a.69.69,0,0,1-.49.76A5.72,5.72,0,0,1,133.63,251.57Z" fill="#838384"/><path d="M135.8,238.13a1.6,1.6,0,0,0,.3-1.61c-.1-.33-.24-.67.1-1,0,.46,0,.84.66.81.5,0,1.1.15,1.19.68s-.6.66-1,.86A2,2,0,0,1,135.8,238.13Z" fill="#7b7a80"/><path d="M137,230.83a.6.6,0,0,1-.15-.72c.84-1,.18-2.14.33-3.2a1.89,1.89,0,0,0,1.47,1.59c.63.19.55.65,0,.93a5.06,5.06,0,0,1-1,.36c-.41.1-.64.29-.57.74A.2.2,0,0,1,137,230.83Z" fill="#76788e"/><path d="M390.58,238.13h-.22c-.92-2.23-1-4.69-1.92-6.94a3.19,3.19,0,0,1,0-1.16A68.63,68.63,0,0,1,390.58,238.13Z" fill="#b7b7b8"/><path d="M136.2,235.56a1.73,1.73,0,0,0,.28-1.53c-.11-.52-.36-1.12.13-1.61a1.08,1.08,0,0,0,.92,1.5c.35.09.76.22.77.64s-.47.49-.78.64A3.56,3.56,0,0,1,136.2,235.56Z" fill="#7d7d89"/><path d="M134.82,245.84v-.2c.4-.63.09-1.33.2-2a2.48,2.48,0,0,0,1.14.49c.34.1.73.27.74.68s-.39.49-.68.59C135.76,245.59,135.29,245.71,134.82,245.84Z" fill="#7a7a7c"/><path d="M138.58,219.57c.34-.33.17-.72.13-1.09s-.24-.61,0-.9c0,.42.21.59.65.66s1.17.18,1.2.66-.72.62-1.17.83a1.83,1.83,0,0,1-1,.22l.18-.39Z" fill="#7d80b1"/><path d="M137,230.83l0-.3,1,.29a.81.81,0,0,1,.68.63c.07.43-.31.55-.6.64a3.81,3.81,0,0,1-1.52.33C137.13,232,137,231.38,137,230.83Z" fill="#7d7d89"/><path d="M138.76,217.55c.58-.87.05-1.85.23-2.76a1.47,1.47,0,0,0,1.15,1.31c.23.06.54.18.52.5s-.35.45-.63.51A5,5,0,0,0,138.76,217.55Z" fill="#7d80b1"/><path d="M138.17,222.51c.41-.41.09-.93.22-1.39.63.1,1.6-.17,1.59.78,0,.7-1,.6-1.52.81-.09,0-.19,0-.29,0A1.34,1.34,0,0,1,138.17,222.51Z" fill="#8588ac"/><path d="M139.37,213c.64-.4.24-1.07.4-1.6.54.05,1.32,0,1.39.57.09.74-.72.87-1.31,1A1.92,1.92,0,0,1,139.37,213Z" fill="#8085d0"/><path d="M135.19,243.25c.28-.35.19-.77.21-1.16a3.25,3.25,0,0,1,2,.6A5.14,5.14,0,0,1,135.19,243.25Z" fill="#8d8c8f"/><path d="M370.2,318.15c-.58-.24-1.16,0-1.74,0-1.93-.08-3.87-.27-5.79-.17-6.17.31-12.34.1-18.51.16-2.79,0-5.58,0-8.36,0-4.23,0-8.45-.07-12.67,0-2.09,0-4.19.05-6.28.1-1.91,0-3.84,0-5.76-.08-2.23-.14-4.49.12-6.73.13-1.81,0-3.62-.26-5.41-.13-1.27.1-2.52-.26-3.79.1a7.72,7.72,0,0,1-2.71-.07c-1.82-.14-3.59.32-5.4.12-2.18-.23-4.38.18-6.56,0a58,58,0,0,0-6,0c-2.09,0-4.19-.08-6.28,0-2.29.07-4.6,0-6.9,0-2.09,0-4.21,0-6.3.09-1.55.09-3.09-.32-4.62-.18-3.32.31-6.63,0-9.95.11-2.71.1-5.45.15-8.16,0-1.85-.08-3.69.06-5.52,0-2.58-.1-5.15,0-7.73,0-1.51,0-3.06-.23-4.53-.09-2.94.27-5.86-.15-8.79.08a43.79,43.79,0,0,1-4.57-.15,6.76,6.76,0,0,0-2,.14,6,6,0,0,1-2.53-.1c-1.47-.23-2.92.43-4.38,0-.64-.2-1.29.19-1.95.17-1.95-.05-3.91-.23-5.85-.13a37.16,37.16,0,0,1-5.06,0,23,23,0,0,0-3.89,0c-1.07.09-2.13,0-3.19.08s-1.93-.14-2.93,0a29,29,0,0,1-4.75.08c-2.12-.14-4.23.07-6.36-.06a10.19,10.19,0,0,0-3.48.06,6.94,6.94,0,0,1-2.13-.07c-3.08-.06-6.16.18-9.24.11s-6.29,0-9.44,0c-1.61,0-3.23-.25-4.84-.14s-3.24.05-4.85.15-3.19-.24-4.81-.16a29.17,29.17,0,0,1-3.51.09,80,80,0,0,0-8.34-.09c-2.58.09-5.17.1-7.74.05-7.73-.14-15.46.08-23.18-.13a14.2,14.2,0,0,1-4.84-.54,6.76,6.76,0,0,1,2.9,0,41.13,41.13,0,0,0,7.19.09c1.67,0,3.35-.06,5,0,2.52,0,5-.08,7.56,0s4.8,0,7.19,0c2.91,0,5.83,0,8.74,0,2.56,0,5.11,0,7.66,0,3.42,0,6.83.06,10.25.05H142.5c3.78,0,7.56.08,11.34,0,6.11-.06,12.22,0,18.33,0,4.3,0,8.6.06,12.9,0l12,0q7.68,0,15.37,0l10.54,0c3.14,0,6.29-.1,9.43-.06,4.56.05,9.12,0,13.68.07,1.54,0,3.09-.07,4.63-.1s3.35.07,5,0c4,0,7.93,0,11.9,0,3.77,0,7.54,0,11.31,0,2.52,0,5-.11,7.58-.06,3.57.08,7.15.09,10.72.05,14-.14,28,0,42.06-.08,3.65,0,7.3.1,11,0,4.89-.18,9.78-.14,14.68-.18,3.78,0,7.55-.25,11.33-.26a9.48,9.48,0,0,0,2.89-.54,43.74,43.74,0,0,0,6-2.34,4.4,4.4,0,0,0,2.73-3.52c.42-3.89,2.83-6.14,6.16-7.68.54-.25,1.11-.4,1.65-.64a29.39,29.39,0,0,1,3.77-1.18c0,.48-.36.58-.65.76a16.89,16.89,0,0,0-3.45,2.75,8,8,0,0,0-2.18,4.73A6.21,6.21,0,0,1,392,312.9a9,9,0,0,1-3.28,2.31,23.75,23.75,0,0,1-6.3,1.89c-1,.15-2,.56-3.07.66-2.64.26-5.28.29-7.93.3A2.65,2.65,0,0,0,370.2,318.15Z" fill="#b0b0b1"/><path d="M395.7,302.35a16.12,16.12,0,0,1-2.43,1.37,9.75,9.75,0,0,0-4.57,4.68,8.41,8.41,0,0,0-.47,2.29,4.72,4.72,0,0,1-2.92,3.76,30.51,30.51,0,0,1-8.15,2.81,5.31,5.31,0,0,1-.68.1c-3.38,0-6.76,0-10.15.18-3.24.15-6.49.14-9.73.09-3.74-.05-7.49,0-11.23.07-24.78.17-49.56,0-74.35.06-7.5,0-15,0-22.49,0H81.83c-1.63,0-3.25,0-4.88.17-1.2.09-2.38-.42-3.61-.37-.52,0-1,0-1.58,0h0c-.58-.23-1.2,0-1.78-.2H69.4c-1.21-.61-2.57-.48-3.84-.78-.18,0-.38,0-.51-.2,2.49.09,4.92.63,7.4.85a55.43,55.43,0,0,0,9.81.2c1.64-.16,3.29,0,4.94,0,1.09,0,2.18.11,3.28,0a35.82,35.82,0,0,1,5.28.08c.41,0,.83-.06,1.25-.07,2.64-.08,5.29-.08,7.93.1,1.07.07,2.13-.18,3.22-.11a52.59,52.59,0,0,0,6.64.1c1.73-.12,3.46,0,5.19-.09,1.48-.1,3,.13,4.51.09,3.1-.07,6.22.08,9.32,0,3.29-.05,6.57,0,9.85-.05,3.44,0,6.89.14,10.33,0,4.67-.14,9.33.17,14,0,2.5-.11,5,0,7.53,0h9.34c5.89,0,11.77.07,17.66,0,4.37-.07,8.74,0,13.11,0,2.43,0,4.89.05,7.32,0a67.66,67.66,0,0,0,6.83-.07,40.7,40.7,0,0,1,5.4.13c3,0,6.06.07,9.09,0,2.05-.06,4.11,0,6.17-.1,1.82-.14,3.7.23,5.55.08,1.69-.14,3.38.26,5.07-.13a13.85,13.85,0,0,1,3.4.11,24.18,24.18,0,0,1,3.29-.08c2.58.43,5.17-.2,7.77.09,1.91.21,3.88-.2,5.8,0,1.66.14,3.27-.35,4.89-.1a33.81,33.81,0,0,0,5.95.07c2.06,0,4.13.12,6.21,0a33.31,33.31,0,0,1,6.47,0,15.56,15.56,0,0,0,1.66-.1c13.57,0,27.14.09,40.71,0,7.32-.07,14.63,0,21.94-.22,3.12-.08,6.3.08,9.39-.71a4.88,4.88,0,0,0,1.55-.58,36,36,0,0,0,3-1.94,4.58,4.58,0,0,0,1.74-2.78,7.76,7.76,0,0,1,3.72-5.74,30.08,30.08,0,0,1,6.23-2.88A2.85,2.85,0,0,1,395.7,302.35Z" fill="#b7b7b8"/><path d="M370.2,318.15c.3-.31.68-.18,1-.18,2,0,4.08-.19,6.11-.32a37.6,37.6,0,0,0,11-2.55,8.42,8.42,0,0,0,3.64-2.56,4.94,4.94,0,0,0,.93-3c.19-2.9,1.78-4.89,3.91-6.62.84-.69,1.83-1.12,2.66-1.8.75-.18,1.35-.77,2.16-.78.07.51-.33.67-.65.88a10,10,0,0,0-4.62,7.86c-.19,2.67-1.77,4.32-3.89,5.57a23,23,0,0,1-5.93,2.07c-2.38.63-4.84.72-7.24,1.19h-.19c-.71.27-1.48-.08-2.18.2H370.2Z" fill="#969596"/><path d="M379.3,318c1-.6,2.16-.36,3.24-.58,3.6-.71,7.24-1.33,10.41-3.3a6.63,6.63,0,0,0,3.21-5.51,9.71,9.71,0,0,1,4.66-7.49,1.82,1.82,0,0,0,.81-.69,7.54,7.54,0,0,0,2-1.2h.57c-.26.54-.81.76-1.24,1.08a9.06,9.06,0,0,0-3.86,7.5,6.88,6.88,0,0,1-4.13,6.58,31.9,31.9,0,0,1-8.11,2.61A61.82,61.82,0,0,1,379.3,318Z" fill="#959596"/><path d="M70,317.37a2.74,2.74,0,0,1,1.78.2C71.18,317.49,70.55,317.75,70,317.37Z" fill="#b0b0b1"/><path d="M376.93,318.16c.69-.42,1.45-.1,2.18-.2C378.41,318.37,377.65,318.06,376.93,318.16Z" fill="#959596"/><path d="M403.41,69c-1.37.39-2.8.48-4.14,1a21.31,21.31,0,0,1-3,.2,18.11,18.11,0,0,1-2.55.18,2.49,2.49,0,0,1-1-.14c-.29-.11-.85.23-.84-.33,0-.3.55-.44.89-.48,3.47-.41,6.91-1,10.36-1.62a6.24,6.24,0,0,1,2-.39c.22,0,.5,0,.54.28s-.18.33-.36.41Z" fill="#201f1f"/><path d="M393.74,70.36c.82-.42,1.7-.09,2.55-.18A3.57,3.57,0,0,1,393.74,70.36Z" fill="#1a1f47"/><path d="M411.7,152.74l0,.22a3.92,3.92,0,0,0-.41,2.26,62.24,62.24,0,0,0,.2,6.26,1.54,1.54,0,0,1-.21,1.14,25.33,25.33,0,0,1-5.95.62H344.94c-.41,0-.86.12-1.24-.17l13.43,0h47.2c2.44,0,2.47,0,2.43-2.39a15.66,15.66,0,0,1,.58-4.95c.37-1.18.83-2.18,2.14-2.37C410.25,153.2,410.89,152.62,411.7,152.74Z" fill="#b6bbed"/><path d="M76.55,70.1a3.23,3.23,0,0,1-2.66.61c-1.88,0-3.73.28-5.6.26a35.09,35.09,0,0,1-3.7-.35c-1.3-.15-2.56-.4-3.83-.65-.13,0-.3,0-.38-.09-.29-.31-1.05-.34-.86-.88s.75-.17,1.17-.13c1.92.18,3.85.36,5.77.5Z" fill="#201f1f"/><path d="M304.58,103c-.33.31-.74.17-1.12.18-1.93,0-3.86,0-5.79,0a3.16,3.16,0,0,1,1.72-.15C301.12,103,302.85,103,304.58,103Z" fill="#a3a9e6"/><path d="M213.08,152.57c-1.4.85-1.51,2.29-1.56,3.67-.08,2.2,0,4.4,0,6.59a23,23,0,0,1-4.61.36q-30.1,0-60.23,0a16.87,16.87,0,0,1-5.72-.86,1.88,1.88,0,0,1-1.44-2.05c.09-3.52.07-7,.1-10.56a1.43,1.43,0,0,1,.14-.95c0,.42,0,.85,0,1.28,0,1.27.2,1.43,1.46,1.53,7.09.51,14.19.38,21.28.38H191c2.42,0,4.85,0,7.27,0,3.46,0,6.93,0,10.39.23C210.12,152.3,211.66,151.79,213.08,152.57Z" fill="#d3d6f5"/><path d="M147.25,133.19c.35-.27.76-.15,1.15-.15h59.4c.39,0,.8-.11,1.15.15h-61.7Z" fill="#d3d6f5"/><path d="M245.08,133.19c.35-.26.76-.15,1.15-.15h59a2.2,2.2,0,0,1,1.34.15l-2.39,0H303a1.28,1.28,0,0,1-1.38,0H245.08Z" fill="#d2d5f8"/><path d="M301.63,133.21H303C302.5,133.75,302.14,133.75,301.63,133.21Z" fill="#d6d6d7"/><path d="M120.18,94.84a2,2,0,0,0-1.37,2.24,38.52,38.52,0,0,0,.19,5.68,10.6,10.6,0,0,1-3.21.36q-29.66,0-59.3,0c-.32,0-.67.08-1-.16h.3c1.24,0,1.18,0,.84-1.18s.27-2.1.46-3.14a11.57,11.57,0,0,0,.61-1.86c0-.41.32-.52.69-.54,1.59-.06,3.17-.19,4.76-.19,16.42,0,32.83,0,49.24,0a16.34,16.34,0,0,0,6.76-1.35C119.53,94.71,119.89,94.55,120.18,94.84Z" fill="#d2d6fc"/><path d="M214.08,122.35c-1.6,2.45-.93,5.15-.86,7.79,0,.49,0,1,.05,1.47a16.61,16.61,0,0,1-5.52.59c1.3-.45,1.23-.44,1-1.95a20.38,20.38,0,0,1,.19-5.46c.13-.86,1.05-1.1,1.81-1.31a10.07,10.07,0,0,0,2.29-.75A2.88,2.88,0,0,0,214.08,122.35Z" fill="#b8bdee"/><path d="M243.49,104.54a13.24,13.24,0,0,1,3.5-.19c.95,0,1.9,0,2.84,0-.54.37-1.14.16-1.71.17C246.57,104.57,245,104.54,243.49,104.54Z" fill="#d2d5f7"/><path d="M404.77,17a4.83,4.83,0,0,1,1.8,2.71c.3.9.58,1.8.89,2.69.48,1.4.84,2.82,1.18,4.25.9,3.84,1.83,7.68,2.64,11.54,1,4.76,1.86,9.54,2.8,14.31.64,3.27,1.21,6.55,1.61,9.86A14.09,14.09,0,0,1,416,66c-.27,2.08-1.7,3.25-3.4,4.15-.42.23-.78.62-1.32.62a1.56,1.56,0,0,1,.83-.67,3.85,3.85,0,0,0,1.7-4.58A4.27,4.27,0,0,1,413.9,64a53,53,0,0,0-1.06-10.05c-.6-3.41-1.25-6.81-1.92-10.21-.63-3.17-1.35-6.33-2-9.51C408,29,406.7,24,405.39,18.9,405.23,18.26,405,17.65,404.77,17Z" fill="#073964"/><path d="M215.86,126.88q0-6.42,0-12.84a1,1,0,0,1,.15.76q0,5.67,0,11.34C216,126.4,216.09,126.67,215.86,126.88Z" fill="#4763f0"/><path d="M125.72,224.88c.08.66-.13,1-.9,1s-1-.44-1.07-1.09.38-.89,1-.9S125.81,224.1,125.72,224.88Z" fill="#3c3d49"/><path d="M136.4,290.1a11.4,11.4,0,0,1-4.08-1c-.71-.33-1.37-.75-2-1.13a1,1,0,0,1-.57-1.14c.27-.8-.24-.67-.7-.71-1-.08-1.94.22-2.88-.19a3.88,3.88,0,0,1,1.94-.19c2,0,4,.15,6,0,3.74-.22,7.5,0,11.21-.8a3,3,0,0,1,1.24.09c-1,.39-2,.5-3,.83a1.49,1.49,0,0,0-1.16,1.29c-.11.75.58.78,1,1a5.35,5.35,0,0,0,3.15.89,29.46,29.46,0,0,1-5.2.73A36.25,36.25,0,0,1,136.4,290.1Z" fill="#f6c555"/><path d="M158.12,281c.62.59,1.44.88,2,1.52.78.86.77,1.28,0,2.16a11.67,11.67,0,0,1-3.37,2.05l-1,.25c.29-.52.85-.69,1.31-1a2.38,2.38,0,0,0,1.12-2.55C158.09,282.63,158.14,281.81,158.12,281Z" fill="#977c6c"/><path d="M129.06,215.28c.26,0,.52.33.59.79s-.22.72-.7.72a3.94,3.94,0,0,0-2.26.45c-.55.34-1.19-.15-1.73-.4-.34-.16-.15-.47.11-.6a3.38,3.38,0,0,1,1.81-.66A12.89,12.89,0,0,0,129.06,215.28Z" fill="#323236"/><path d="M138.58,219.56l-4.59-.87c0-.53.4-.67.78-.69.62,0,1.23-.11,1.84-.2,1.48-.22,1.9.2,2,1.77Z" fill="#323236"/><path d="M128.31,219.24c-.65-.38-1.54-.17-2.35-.38-.24-.07-.73,0-.71-.34s.49-.52.83-.52a9.7,9.7,0,0,0,2.69-.36.66.66,0,0,1,.7.23c.24.23.49.47.36.84s-.41.39-.7.44S128.68,219.2,128.31,219.24Z" fill="#323236"/><path d="M136.71,216.18c-.84.07-1.74-.29-1.86,1,0,.33-.58.34-.86-.06a.91.91,0,0,1,.64-1.47c1.05-.13,2.12-.2,3.17-.33a.66.66,0,0,1,.65.32.44.44,0,0,1,0,.55c-.17.23-.38.13-.62.1A10.27,10.27,0,0,0,136.71,216.18Z" fill="#323236"/><path d="M123.18,217.59c-.15,0-.44-.08-.72-.15s-.73,0-.67-.53a.76.76,0,0,1,.72-.7,3.22,3.22,0,0,1,1,.07c.39.11.91.16.83.77S123.74,217.56,123.18,217.59Z" fill="#323236"/><path d="M130,213.54c-.91.57-1.53.12-2.16.09-1.43-.07-2.86-.19-4.29-.28-.2,0-.45.07-.47-.19s.29-.32.5-.3c1.56.14,3.11.3,4.67.46Z" fill="#797a86"/><path d="M123.66,215c-.48-.17-1.34.26-1.34-.4s.86-.6,1.43-.61,1.32-.36,1.27.52S124.11,214.82,123.66,215Z" fill="#323236"/><path d="M130.62,214.57a6.53,6.53,0,0,1,2.19-.55c.43,0,.72.17.76.57s-.4.43-.68.41C132.18,214.94,131.4,215.25,130.62,214.57Z" fill="#323236"/></g></g></svg>