<?xml version="1.0" standalone="no"?>
<!DOCTYPE svg PUBLIC "-//W3C//DTD SVG 20010904//EN"
 "http://www.w3.org/TR/2001/REC-SVG-20010904/DTD/svg10.dtd">
<svg version="1.0" xmlns="http://www.w3.org/2000/svg"
 width="2560.000000pt" height="1922.000000pt" viewBox="0 0 2560.000000 1922.000000"
 preserveAspectRatio="xMidYMid meet">

<g transform="translate(0.000000,1922.000000) scale(0.100000,-0.100000)"
fill="#000000" stroke="none">
<path d="M110 9615 l0 -9555 12695 0 12695 0 0 9555 0 9555 -12695 0 -12695 0
0 -9555z m10140 3415 l0 -1900 -2020 0 -2020 0 0 1900 0 1900 2020 0 2020 0 0
-1900z m4660 0 l0 -1900 -2025 0 -2025 0 0 1900 0 1900 2025 0 2025 0 0 -1900z
m4650 0 l0 -1900 -2020 0 -2020 0 0 1900 0 1900 2020 0 2020 0 0 -1900z m1605
-3990 c207 -44 447 -140 608 -243 l57 -37 0 -366 0 -366 -57 52 c-207 189
-431 313 -678 376 -137 35 -391 45 -515 20 -319 -65 -510 -252 -510 -500 0
-147 58 -280 179 -408 135 -144 219 -203 676 -473 348 -206 441 -268 562 -368
273 -228 442 -496 498 -792 64 -331 -7 -696 -182 -944 -259 -366 -700 -549
-1231 -511 -366 26 -662 127 -974 333 l-108 71 0 403 c0 222 3 403 8 403 4 0
30 -28 57 -61 73 -90 250 -256 342 -322 163 -116 350 -200 532 -237 353 -72
643 -4 829 194 97 104 142 217 142 361 0 194 -88 367 -280 547 -120 113 -196
166 -555 385 -475 290 -608 386 -775 559 -238 247 -335 522 -309 875 12 159
47 290 114 424 159 321 463 543 851 624 144 30 138 29 389 26 190 -2 247 -7
330 -25z m-15429 -1759 l1509 -1738 5 1736 5 1736 305 0 305 0 3 -2243 2
-2242 -282 2 -283 3 -1495 1723 -1495 1722 -3 -1725 -2 -1725 -300 0 -300 0 0
2245 0 2245 258 0 258 0 1510 -1739z m5834 1449 l0 -290 -950 0 -950 0 0 -680
0 -680 918 -2 917 -3 3 -287 2 -288 -920 0 -920 0 0 -695 0 -695 980 0 980 0
0 -290 0 -290 -1302 2 -1303 3 -3 2230 c-1 1227 0 2236 3 2243 3 9 268 12
1275 12 l1270 0 0 -290z m1906 -1244 c336 -842 615 -1536 620 -1543 6 -8 218
507 629 1530 l620 1542 302 3 c280 2 303 1 311 -15 6 -10 285 -700 622 -1533
337 -833 616 -1521 620 -1529 4 -8 55 108 133 305 70 176 344 870 611 1544
l485 1225 320 3 c177 1 321 0 321 -2 0 -3 -406 -1012 -901 -2243 -496 -1231
-903 -2244 -906 -2250 -4 -9 -29 -13 -78 -13 l-73 0 -35 88 c-440 1097 -1418
3526 -1424 3537 -6 10 -245 -568 -748 -1805 l-739 -1820 -72 0 -71 0 -898
2238 c-494 1230 -900 2245 -903 2255 -4 16 14 17 319 15 l323 -3 612 -1529z"/>
<path d="M7270 13030 l0 -1371 608 4 c657 4 671 6 854 63 221 70 387 199 477
373 62 121 76 177 75 321 -1 107 -5 136 -27 205 -36 107 -74 171 -154 255 -99
105 -212 174 -388 234 -17 6 -11 12 35 38 81 46 189 160 228 240 60 122 78
287 47 432 -47 224 -224 416 -464 504 -169 62 -200 65 -768 69 l-523 5 0
-1372z m991 926 c125 -27 212 -87 253 -176 16 -35 21 -65 21 -135 0 -107 -14
-159 -58 -217 -91 -120 -255 -168 -574 -168 l-143 0 0 355 0 355 218 0 c148 0
238 -5 283 -14z m61 -1126 c173 -17 284 -58 368 -136 69 -64 94 -128 94 -235
0 -73 -4 -94 -27 -141 -48 -98 -137 -163 -282 -204 -50 -15 -115 -18 -387 -22
l-328 -3 0 375 0 376 228 0 c125 0 275 -5 334 -10z"/>
<path d="M11930 13029 l0 -1370 608 4 c605 4 607 4 722 29 361 79 590 273 665
563 19 75 19 240 0 322 -33 140 -117 273 -232 368 -71 59 -205 132 -285 155
-27 8 -48 18 -48 22 0 4 15 15 33 24 65 34 156 116 201 182 134 196 136 481 5
697 -125 206 -350 330 -661 364 -54 6 -299 11 -553 11 l-455 0 0 -1371z m1006
921 c95 -24 157 -61 201 -118 41 -55 56 -108 55 -203 -2 -143 -62 -242 -185
-300 -105 -49 -190 -63 -402 -63 l-190 -1 -3 353 -2 352 223 0 c192 0 235 -3
303 -20z m34 -1120 c234 -22 367 -87 435 -211 41 -75 47 -197 15 -282 -27 -71
-97 -145 -172 -180 -118 -56 -148 -60 -505 -64 l-333 -5 0 370 c0 203 3 372 7
375 10 11 436 8 553 -3z"/>
<path d="M17480 14420 c-410 -57 -734 -215 -985 -482 -167 -178 -281 -402
-337 -661 -29 -139 -31 -392 -4 -517 91 -416 370 -773 749 -959 132 -65 250
-105 401 -137 100 -22 157 -27 333 -31 396 -10 663 40 996 184 l127 56 0 259
c0 143 -3 257 -7 255 -145 -84 -225 -127 -302 -161 -317 -142 -637 -194 -928
-150 -451 66 -758 317 -860 701 -22 83 -26 120 -26 243 -1 207 42 359 145 517
202 309 583 482 1013 460 269 -14 498 -80 784 -224 80 -40 146 -73 148 -73 2
0 2 113 1 251 l-3 251 -50 20 c-185 75 -446 151 -630 184 -105 19 -464 28
-565 14z"/>
</g>
</svg>
