<svg xmlns="http://www.w3.org/2000/svg" viewBox="0 0 512 512"><g id="Layer_2" data-name="Layer 2"><g id="Layer_1-2" data-name="Layer 1"><path d="M255.49,511.91q-125.67,0-251.33.09C.84,512,0,511.48,0,508Q.19,256.11,0,4.26C0,.44,1,0,4.44,0Q256,.15,507.6,0c3.47,0,4.4.55,4.4,4.28q-.18,251.61,0,503.21c0,3.92-1.07,4.51-4.68,4.51Q381.41,511.84,255.49,511.91Z" fill="#fefefe"/><path d="M76.8,205.88c1.51-10.3,7.37-17.26,16.88-21,10.67-4.14,22-4.71,33.27-5.17,1.39,1,1.4,2.61,1.41,4.08,0,2.94,1.34,4.7,4.26,5.21,8.55,1.36,17.1,2.22,25.74,1.15a13.31,13.31,0,0,1,2.42-.41,25.51,25.51,0,0,0,5.5-.71c2.39-.41,4.8-.72,7.18-1.27,14.53-2.37,28.93-5.47,43.48-7.75,6.65-1.05,13.55-.58,20-3.18a34,34,0,0,1,7.47-.46q43,0,85.94,0c2.65,0,5.34-.25,7.9.74,2.1,1.16,2,3.26,2.16,5.21.53,5.52,1.28,6.35,6.9,7,7.74.91,15.49,1.66,23.29,1.07a8.4,8.4,0,0,1,1.54-.43c2.3-.4,4.68-.14,6.93-.9,2.05-.4,4.1-.78,6.15-1.22a25.39,25.39,0,0,1,4.85-.21c6.14,1.3,12.2-.28,18.29-.5,1.16,0,2.3-.43,3.47-.43,2.72,0,5.55.14,6.77,3.1s-.26,5.23-2.51,7c-3.28,2.52-4.05,5.35-2,9.11,1.73,3.22.39,5.76-2.5,7.63a12,12,0,0,1-3.61,1.67c-13.34,3.4-26.39,7.72-40.56,7.31A239.59,239.59,0,0,0,305,228.4c-9.31,2.2-16.6,7.31-23.73,13.1a4.1,4.1,0,0,0-1.4,4.47,10.78,10.78,0,0,1-2.45,10.21c-2.3,2.62-1.85,5,.16,8,6.75,10.19,6.95,21.12,2.22,32.21-1.1,2.56-3.38,3.57-6.12,3.43a18.87,18.87,0,0,1-4.87-1c-14.73-4.79-26.68-.56-37.58,10.09-8.58,8.38-8.91,17.91-6.9,28.41C227,346.38,231.86,353.86,240,359c3.44,2.19,4.44,5.49,4.42,9.44-.08,12.13,0,24.26,0,36.39,0,7.47,2.05,10.7,7.65,12.23s12.91-1.44,16-6.36c1.1-3.41.51-6.91.56-10.36.16-12.07-.17-24.15.16-36.22.41-2.92,2.54-4.48,4.71-6.06,12.64-9.21,16.86-21.34,12.77-36.57-.55-2.05-1.53-4.08-.55-6.28,2.6-3.4,4.89-2.15,6.63.72a20.7,20.7,0,0,1,2.56,16.35c-3,11.54-7.07,22.6-15.2,31.66-3.93,4.38-3.77,9.86-4.06,15.09-.4,7.15,0,14.33-.16,21.49-.13,5.34-.69,10.66-3.11,15.55a15.89,15.89,0,0,1-7.9,7.36c-3.14,1.44-4,3.53-3.39,6.79,2.14,11,1.78,22.16,2.49,33.25.41,6.28-3.7,11.26-4.46,17.24-.28,2.26-3.5,2.93-5.78,3.34-8.51,1.52-17,3.85-25.58,4.13-15.8.52-31.59,2-47.41,1.06-17.59-1-35.2-1.38-52.79-2.05-10-.39-19.72-3-29.32-5.75a16,16,0,0,1-11.61-12,55.4,55.4,0,0,1-2-11.29c-1.09-20.8-1.08-41.6-1-62.41,0-13.29,0-26.59-.21-39.85-.53-30.11-.52-60.21-.88-90.31-.19-14.93,0-29.91-1.81-44.81C80,215.62,77.29,211.06,76.8,205.88Z" fill="#073964"/><path d="M76.8,205.88c4.61,5.91,5.82,13.12,6,20.08.32,10.64.54,21.34.82,32,.57,21.29-.31,42.57.6,63.83.25,5.92.94,11.71-.07,17.65-1.05,6.12,1,12.18,1,18.35-.18,26.31-.67,52.65.22,78.93.36,10.81-.61,21.87,2.56,32.6,2.08,7,7,10,13.42,11.67,13.7,3.66,27.57,4.87,41.77,5.21,19.56.46,39.15,2.55,58.69,1.5,13.46-.72,27.17.7,40.49-3.41,4.1-1.26,8.86-.75,13.12-2.3,1.9-.69,4-1,2.77-4-.63-1.48.09-3,.95-4.24,4.3-6,3-12.6,2.21-19.16a7.24,7.24,0,0,1-.3-2c1.51-8.42-1.09-16.51-2-24.73-.27-2.49.2-4.11,3.28-5.09,6.14-2,9.58-6.59,10.71-13.11,1.36-7.94,1-15.91.89-23.86A150.38,150.38,0,0,1,275,368.93c.28-2.88,2.38-4.6,4.09-6.65,8.27-9.94,12.83-21.55,14.88-34.23.62-3.83-1.07-7.14-2.3-10.56-1.28-3.58-3.2-4.42-6-1.43-2.73-.24-3.68-2.66-5.14-4.36-9-10.47-22.49-14.08-35.72-9.4-12.59,4.44-20.26,15.5-20.5,29.48,0,2.1.47,4.37-1.21,6.17-1.9-9.95-2.46-19.43,5.16-27.87C235.58,302,244,296.73,255,295.32c4.92-.62,9.13.9,13.6,2,3.1.76,6.54,3,9.25-.12,1.51-1.76,2.16-4.43,2.76-6.8,2.13-8.33.21-16.27-2.74-24.06-.6-1.6-2.72-1.59-3.27-2.87-1.08-2.5-1.47-5.36.86-7.36,3.69-3.17,4.58-6.76,2.5-11.08-.79-1.65-.46-3,1-3.9,7.45-4.48,13.36-11.3,22.51-13.24,12.62-2.68,25.18-5.19,38.13-6,13.13-.85,26.32.13,39.34-1.1,10.47-1,20.77-4.16,30.78-7.72,3.65-1.29,5.48-3.58,2.52-7.59-2.53-3.43-1.63-6.69,1.93-8.93,2.43-1.53,4.82-3.26,3.41-6.28s-4.84-2.36-7.58-2c-6.68.86-13.35,1.77-20.1.79.44-2.72,2.87-2.28,4.59-2.75,5.69-1.58,11.6-2,17.39-3.12a43.51,43.51,0,0,1,14.14,6.5c2,4.09,1.45,8.14-.46,12-3,6.18-6.55,12-13,15.34-5.39,2.84-8.21,7.52-9,13.57a199.68,199.68,0,0,0-2,25.36c-.16,26.15.21,52.31-.12,78.46-.46,36.93-1,73.85-1.06,110.78A193.67,193.67,0,0,1,398.22,471c-1.33,9.76-7.17,14.75-18.45,15.24-10.95.48-21.92.26-32.9,1-15.89,1.06-31.81,1.73-47.7,2.88-8.29.6-16.62.67-24.9.92-25.61.77-51.24,2.23-76.85,1.11-19.1-.84-38.26-.45-57.28-2.14-12.91-1.14-25.94.56-38.75-2.47a67.59,67.59,0,0,1-19.48-7.36c-4.31-4.57-4-10.28-4-15.92-1-4.74.27-9.6-.72-14.34L77,407.31c-.83-5.8-.26-11.62-.36-17.43-.27-16,.44-31.93-.37-47.89L76,264.36q-.93-20.85,0-41.7C75.87,217.05,75.45,211.42,76.8,205.88Z" fill="#073964"/><path d="M132.05,190.1c-3.79.11-5.29-1.74-4.93-5.46a34.67,34.67,0,0,0-.17-4.88c.52-16.12,0-32.25,1-48.36,2.25-36.31,17.26-66.17,44.81-89.84A91,91,0,0,1,191,28.92c2.92-.18,5.34-1.77,7.84-3,36.17-17.72,72.26-15.31,108.35.24,10,4.32,18.88,10.47,27.3,17.33C341.27,49,346.32,56,351,63.37a11.75,11.75,0,0,1,1.6,4.18c.71,3.87-1.1,5.69-5,5-2.2-.36-5-2.24-6.39.24-1.28,2.2,1.83,3.5,2.91,5.24,10.81,17.3,18.27,35.7,20.47,56.23.93,8.63.29,17.27,1.41,25.88S369.79,177,372,185.37c.51,1.9,1.46,3.81,0,5.71h0c-3.6.94-4-2.19-5-4.19-4.57-9.16-6.92-19-8.35-29.08a107.79,107.79,0,0,0-6.5-25.16c-1.16,9.66-6,18.13-7.89,27.52-.88,4.43-2,4.92-5.9,3.5-1.46-4.26-1-8.57-.41-12.88,5.54-12,4.06-24.7,3.2-37.28-.64-9.55-3.7-18.52-7.06-27.37-1.49-3.9-4.57-6.91-6.9-10.35-1.36-2-2.66-3.86-1.28-6.37,1.12-2,.29-3.48-1.46-4.63C311.94,56.55,299.69,48,284.9,43.91q-57-15.55-100.45,24.16A91,91,0,0,0,155.83,119c-4.22,21.67-2.35,43,4.73,64,.86,2.56,2.61,5.23.48,8l-1.89.07c-6.69.91-6.65.82-8.26-5.17-1.72-6.42-3.22-12.93-5.78-19.1a27,27,0,0,1-1.06-18.49,32.74,32.74,0,0,0,.95-12.85c-1.14-10.1,2.36-19.46,6-28.57,11.19-28.2,29.95-49.75,57.51-63,20.79-10,42.8-12.91,65.69-10.6,9.64,1,19.05,3.08,28.56,4.69,5.76,1,10.91,4,15.59,4.84-14.87-11.95-32.72-19.34-52.64-21.95C235.62,17,207.84,23,183.51,41.13c-21.51,16-36,37.16-40.62,64.2a42.66,42.66,0,0,0-.49,6c-.36,12.46.85,25-.82,37.41-.39,2.88,1.16,5.43,1.36,8.3.48,7-2.21,13-4.58,19.15C136.52,180.9,135.36,186,132.05,190.1Z" fill="#272829"/><path d="M81.91,480.22c3.81-1.2,6.37,1.88,9.35,3.07a61.85,61.85,0,0,0,21.79,4.39c12.13.18,24.24.83,36.35,1.32,30.56,1.22,61.12,2.52,91.7,1.8,19.08-.45,38.15-1.24,57.22-2,17.37-.74,34.76-1.71,52.07-3.14,11.6-.95,23.29.92,34.74-1.73,8-1.85,11-6.55,11.91-14.88,3.24-30.53,1.24-61.14,2-91.71.25-10.17-.18-20.38.28-30.46,1.31-28.46.16-56.91.61-85.35a219.18,219.18,0,0,1,2.72-34.13c.91-5.3,4-8.81,8.25-11.21,10.39-5.9,15.31-14.7,15.17-26.51,1.9,1.52,3.77,3.08,4.77,5.4.35,8.18-3.68,14.17-9.49,19.37-6.88,6.15-7.48,14.56-7.8,23-1.75,45.95-.36,91.93-1.21,137.88-.44,23.48-.37,46.95-1,70.42a192.19,192.19,0,0,1-1.9,25.87c-1,6.29-4.08,10.67-10,13.26a52.76,52.76,0,0,1-22.34,4.41c-13.49-.27-26.95.7-40.38,1.35-22.1,1.07-44.21,1.08-66.29,2-30.8,1.36-61.59.69-92.37.58-17.43-.07-34.86-1.49-52.3-1.83-7.8-.15-15.59.35-23.38-.92a79.06,79.06,0,0,1-15.26-4.52A12.3,12.3,0,0,1,81.91,480.22Z" fill="#073964"/><path d="M435.76,211c1,10.76.87,21.56.79,32.34q-.33,44.82-.8,89.64c-.78,13.87-.08,27.74-.35,41.6-.13,6.6.46,13.2-.37,19.78q-.12,23.79-.25,47.58c-1.06,6.73.33,13.56-.75,20.29.31,17.75-7.39,26.12-25.64,31.44a96.79,96.79,0,0,1-32,3.32c-3.76,1-7.67-.25-11.44.74l-11.51.25c-3.77,1.06-7.7-.23-11.48.75l-16.52.25c-5.79,1.11-11.68-.3-17.47.78-6.5.27-13,.75-19.52.22-4.26.84-8.57.35-12.85.37-15.56.07-31.11,0-46.67,0-1.8,0-3.64.32-5.4-.37-6.19.51-12.36.07-18.53-.22-.41-3.81,2.61-3.15,4.58-3.19,9.74-.2,19.5,0,29.25-.12,4.94-.07,9.91.6,14.81-.56,3.1-.71,6.24-.45,9.38-.44,8.85-.23,17.73.68,26.57-.56a20.89,20.89,0,0,1,5.41-.41c5.85-.19,11.73.57,17.55-.54a12.18,12.18,0,0,1,2.61-.38c5.47-.35,11,.55,16.42-.62a9.23,9.23,0,0,1,1.73-.31c5.8-.49,11.66.53,17.43-.73a13.79,13.79,0,0,1,3.56-.39c6.61-.34,13.27.73,19.83-.74a115.29,115.29,0,0,0,33.17-6.06c10.4-3.51,14.31-9,15.07-19.81,1.18-16.61.53-33.25,1.06-49.86,1.58-49.54.31-99.1,1.14-148.64.23-14.12.61-28.25.81-42.38.06-3.91.75-7.67,3.21-10.81C430.4,211,432.51,208.92,435.76,211Z" fill="#073964"/><path d="M295,495.92h-5c-7,1.11-14.12.14-21.17.5-1.94.1-4-.52-5.82.5h-9c-2.23,1-4.58.44-6.87.45-12.3.07-24.64-.62-36.87.21-13.29.9-26.49-.21-39.71-.36-16.9-.18-33.79-1.44-50.69-2.18-1.65-.07-3.32-.35-4.82.66-7.61-.84-15.16-1.91-21.93-5.9.74-2.61,2.69-1.4,4-1.05,8.63,2.19,17.4,2.19,26.23,2.26,15.45.12,30.88,1.29,46.32,1.72,12.63.36,25.28.65,37.92.75,24.47.2,48.92-.38,73.37-1.07,29.73-.83,59.42-2.73,89.15-3.56,10.94-.3,21.87-.84,32.24-5.33,6.65-2.87,10.35-7.28,11.16-14.51,1.29-11.43,1.36-22.92,1.68-34.37.56-20-.28-40,.24-59.95,1.1-41.26.75-82.52,1-123.79.05-7.64.77-15.29,1.09-22.94.29-7.09,2.73-13.34,8.16-18.17,1.91-1.71,3-3.93,4.25-6.1.81-1.41,1.23-3.79,3.89-2.67.42,3.38,2.66,6.4,1.92,10-5,.46-7.57,3.16-8.68,9.14a22.44,22.44,0,0,0-.15,3.49c-1.36,54.43-.53,108.87-1.2,163.3-.27,21.36-.21,42.74-1.06,64.08-.27,6.68-.25,13.52-1.51,20.26-1.42,7.59-6.46,12-12.72,14.07-11.75,3.91-23.83,7.16-36.49,6.56-4.86,1.06-9.8.18-14.68.5-1.78.11-3.62-.49-5.31.5h-3c-4.2,1.05-8.47.19-12.69.5-1.77.12-3.62-.5-5.3.5h-1c-5.6,1.35-11.39-.41-17,1h-2c-4.2,1.05-8.47.19-12.7.49C298.51,495.54,296.67,494.92,295,495.92Z" fill="#073964"/><path d="M433.84,201c-6.83,9.93-15,18.36-15.31,32.35-.77,34.55.27,69.09-.72,103.61-1,33.82-.23,67.64-1.16,101.43-.29,10.53.12,21.2-1.62,31.74-1.54,9.29-6.87,14.44-18.78,16.72-10.92,2.09-22,2.65-33.07,3.05-18.57.67-37.16,1-55.69,2.13-15.07.93-30.16,1.2-45.21,2.05-20.45,1.15-40.89.95-61.32.64-12.94-.19-25.92-.3-38.83-1-17.07-.9-34.12-1.76-51.21-2-4.56-.05-9.12-1.44-13.66-2.35-1.48-.3-2.86-1-4.15.35a12.26,12.26,0,0,1-6-3.89c1.86-1.67,3.47,0,5,.58,9.39,3.32,19.12,3.79,28.91,3.56,16.6-.4,33.14.72,49.69,1.78,1.49.1,3,.08,4.49.08,22.31,0,44.63,0,66.94,0,21.11.06,42.2-1.06,63.31-1.24,15.72-.13,31.51-.89,47.19-2.07,11.25-.85,22.5-.13,33.75-1.5C402,485.21,408.19,479,409,463.25c1.15-22.43.23-44.9,1.08-67.31,1.7-44.93-.1-89.86,1.13-134.76.32-11.54-.32-23.22,1.7-34.73a22.51,22.51,0,0,1,6.29-12.17c4.87-4.95,10.67-9.3,10-17.46,0-.55,1-1.18,1.58-1.78Z" fill="#073964"/><path d="M372,191.08c-1.91-7.18-3.75-14.39-5.77-21.54A57.35,57.35,0,0,1,364,153.38c.14-13.67-1.16-27.14-5.12-40.23-4.14-13.7-10-26.62-19.17-37.8-2.07-2.51-1.43-4.6,1.8-5.19a7.7,7.7,0,0,1,4.86.62c1.42.69,2.92,2,4.58.52,1.89-1.69.49-3.57-.18-5A53.37,53.37,0,0,0,340.1,50.83c-18.85-19-41.91-29.61-68.23-33.9a130.21,130.21,0,0,0-45.88.35A81.43,81.43,0,0,0,203,25c-3.69,2-7.22,5.09-12,4a120.5,120.5,0,0,1,57.57-17,62.23,62.23,0,0,1,14.94,0,105.27,105.27,0,0,1,33.76,6.31C316.3,25.05,333.73,34.9,348,49.65c2.84,2.93,6.07,5.59,7.83,9.45-.07,2.36,1.56,4,2.69,5.77,10.18,15.85,14.8,33.22,14.95,52,.13,15.46-.88,30.93.89,46.37.84,7.3,2.52,14.41,4.07,21.56.39,1.78,1,3.52.73,5.39C376.91,191.71,374.39,190.91,372,191.08Z" fill="#272727"/><path d="M379.14,190.18c-3.46-5.84-3.87-12.55-5.1-19-3.45-17.92-2-36.08-2-54.14a99,99,0,0,0-13.64-50.19c-1.3-2.26-4.45-4.32-2.57-7.79C372.42,79.85,382.42,103.19,384,130c1,16.6.54,33.2,1,49.8,1.82,3.1,2.07,6.18-.15,9.23C383.12,190.1,381.13,190.13,379.14,190.18Z" fill="#1d1e1f"/><path d="M115,495.7c-.8-1.93.49-1.78,1.73-1.79,15.57-.11,31.11.57,46.62,1.88.82.07,1.66.12,2.48.12,29.39,0,58.75,1.73,88.13,1-1.47,1.63-3.42,1-5.16,1-13,.05-25.9,0-38.86.08-1.74,0-4.19-1.15-4.95,1.82C175,499,145,498.65,115,495.7Z" fill="#073964"/><path d="M384.89,189l.15-9.23a117,117,0,0,1,26.86,3.38c-4.08,3.34-9.38,2.22-14,3.8-2.6.89-5.54.59-8,2.07Z" fill="#073964"/><path d="M76.24,342a3.42,3.42,0,0,1,.84,2.75Q77,376,77,407.3c-1-5.09-.54-10.26-.59-15.39C76.25,375.27,76.28,358.63,76.24,342Z" fill="#073964"/><path d="M223.56,500h64.92c-8.06,1.19-16.18.73-24.26.71C250.66,500.69,237.09,501.34,223.56,500Z" fill="#073964"/><path d="M435,394.38q0-29.06-.1-58.12c0-1.15-.13-2.34.82-3.26C435.78,353.47,436.18,373.93,435,394.38Z" fill="#073964"/><path d="M76,222.66v41.7A312,312,0,0,1,76,222.66Z" fill="#073964"/><path d="M434,462.25c.21-6.77-1.06-13.58.75-20.29C434.83,448.74,435.27,455.52,434,462.25Z" fill="#073964"/><path d="M308,499.78c5.75-1.91,11.65-.44,17.47-.78C319.69,500.22,313.84,499.81,308,499.78Z" fill="#073964"/><path d="M263.47,12H248.53A35.49,35.49,0,0,1,263.47,12Z" fill="#073964"/><path d="M77.24,450c1.76,4.7.55,9.55.72,14.34C76.63,459.57,77.22,454.75,77.24,450Z" fill="#073964"/><path d="M365,497.75c3.72-1.71,7.62-.52,11.44-.74C372.66,498.06,368.81,497.82,365,497.75Z" fill="#073964"/><path d="M342,498.75c3.73-1.72,7.65-.5,11.48-.75C349.7,499.06,345.84,498.8,342,498.75Z" fill="#073964"/><path d="M338.85,150.05a77.72,77.72,0,0,0,.08,14c2.19,4.69,2.82,9.35-.28,13.94-2.15.11-4.29.33-6.44.32q-46.4-.18-92.78-.4c-1.16,0-2.31.15-3.47.24-6.86,1.48-13.85,1.31-20.81,1.46-12.63.27-25.28-.4-37.91.38a5.63,5.63,0,0,1-3.81-.85c-2-1.78-1.64-4.21-1.75-6.5-.7-14.16.24-28.31,1.3-42.36,1.33-17.69,8.57-33.28,20.81-46.5,13.53-14.63,29.89-23.88,49.62-26.4,26-3.31,49.56,2.53,69.26,20.84,3.17,3,6.13,6.08,9.06,9.24,12,15.78,18.57,33.36,17.57,53.38C339.14,143.89,340.78,147.07,338.85,150.05Z" fill="#fefefe"/><path d="M223.09,338c-.75-9.32.19-18.19,6.19-25.95a33.78,33.78,0,0,1,54.61,1.7c.56.81,1.18,1.57,1.77,2.36,6.32,16.25,3.76,29.88-7.35,40-2.66,2.43-6.44,3.46-8.37,6.77-1.05,6.25-.25,12.53-.44,18.8-.3,10.08.45,20.18-.38,30.25-5.15,8.35-18.82,9.45-24.88,2.1-1.45-1.76-1.36-3.66-1.36-5.64,0-13.82-.08-27.64,0-41.46,0-2.71-.54-4.86-3-6.34C231.18,355.33,225.79,347.64,223.09,338Z" fill="#191919"/><path d="M132.05,190.1c1.49-7.88,5.57-14.85,7.94-22.45,1.66-5.34,2.4-10.19.37-15.43a6.68,6.68,0,0,1-.26-3.44c2-11.08,1-22.25.84-33.36-.17-14.8,4.4-28,11.32-40.78a102.67,102.67,0,0,1,16.36-22.45,109.25,109.25,0,0,1,55.66-31.12,104.7,104.7,0,0,1,25.6-2.85c17.85.51,35.51,3.38,51.37,11.86C309,34.23,317.07,38.79,323.1,46c-6.18-2.06-12.26-4.55-18.56-6.08-18.1-4.41-36.54-7.39-55.15-5.65-25.58,2.38-48.47,11.54-67.59,29.44-17.13,16-28.26,35.4-34.07,58-1.41,5.47-2.27,10.87-1,16.68a17.84,17.84,0,0,1-1.18,10.2c-2.86,6.66-1.29,12.7,1.2,18.78A103.63,103.63,0,0,1,152,185.38c.89,4.31,2.61,6.51,7.16,5.7C150,192.85,141,192.17,132.05,190.1Z" fill="#2e2e2e"/><path d="M338.85,150.05c-1.14-9.17-.19-18.5-2.14-27.63-2.69-12.66-8.33-23.91-16-34.24-2.44-7-7.59-12.1-13-16.75-17.43-15-37.86-23.7-60.82-22.76-42.08,1.73-77.65,32.13-83.28,75.1-1.14,8.65.73,17.25,1.22,25.87.74,13,1.37,25.9,2,38.85a3.64,3.64,0,0,1-.73,1.84c-1.57,1.17-3.37.59-5.09.68.3-3.47-1.33-6.48-2.38-9.6a117.77,117.77,0,0,1-6.48-41.48c1.36-43.57,22.14-74.84,61.66-93.07a95,95,0,0,1,48.48-8.67c21,1.87,40.36,8.81,57.16,22A27.84,27.84,0,0,0,324.1,63c3.09,1.56,6.85,3.09,2.57,7.38-1.27,1.27-.27,2.39.61,3.46,1.06,1.27,2.05,2.59,3,3.91,10,13.4,12.3,29.34,13,45.18.37,8,1.09,16.61-2.38,24.53A4.16,4.16,0,0,1,338.85,150.05Z" fill="#272727"/><path d="M166.13,190.33c-2.36-7.93-1.08-16.18-1.74-24.25-.92-11.37-1.65-22.8-2.29-34.21-.76-13.67,3.32-26.42,9.76-38.13C184.34,71.07,203.53,56.58,228.57,50c27.77-7.29,52.38.25,75.09,16.28A62.49,62.49,0,0,1,319,81.8c1.19,1.72,3.87,3.54,1.73,6.38C312.09,79,302.88,70.54,291.21,65.3,236,40.5,175.53,78.74,174,136c-.39,14-.49,27.94-.72,41.9,1.52,3.75,2.28,7.47-.21,11.14C170.88,190.28,168.44,190,166.13,190.33Z" fill="#151c24"/><path d="M338.65,178q.14-7,.28-13.94c2.27.09,3.71-.57,4.06-3.21,1.34-10,6.61-19,7.66-29.07.09-.84.16-2.24,1.5-2.22s1.93,1.33,2.17,2.4c1.89,8.49,4.61,16.78,5.68,25.47a91.76,91.76,0,0,0,9,30.73c.66,1.3,1.13,2.84,3,3-4.13,1.74-8.47.9-12.67.78-5.08-.15-10.13-1.12-15.21-1.54-4.09-.35-5.88-2.22-5.33-6.43A35.6,35.6,0,0,0,338.65,178Z" fill="#282c31"/><path d="M231.22,215.37a71.78,71.78,0,0,1-8.53,1.57c-25.9,1.77-51.85,1.39-77.76.79-9.26-.22-18.56-.45-27.85-.65a22.57,22.57,0,0,1-10-2.57c-1.32-.68-3-1.23-2.83-3.06.22-2.06,1.78-2.91,3.71-3.47a31.92,31.92,0,0,1,13.83-.69,56.68,56.68,0,0,0,8.89.71c13.62-.08,27.2,1,40.82,1.2,16,.22,32,1.74,48.06,2.9,3.9.28,7.75,1.38,11.62,2.1Z" fill="#46749f"/><path d="M173,189l.21-11.14c1.67,1.16,3.54.59,5.34.58l57.39-.32c-3.49,3.56-8.26,2-12.29,2.54-15.7,2-31.16,5.28-46.69,8.18A27.44,27.44,0,0,1,173,189Z" fill="#18446c"/><path d="M269.12,411.9q0-22.65,0-45.31c0-1.29-.31-2.69.84-3.74q0,22.41.05,44.83C270,409.12,270.4,410.7,269.12,411.9Z" fill="#29639b"/><path d="M263,496.92c3-2,6.41-.82,9.62-.94,5.78-.22,11.58-.06,17.37-.06-3,2-6.41.82-9.62.94C274.59,497.07,268.79,496.92,263,496.92Z" fill="#184670"/><path d="M354,492.92c6.57-2.27,13.34-.38,20-1C367.38,494.19,360.61,492.3,354,492.92Z" fill="#184670"/><path d="M333,493.92c5.89-2.22,12-.43,18-1C345.07,495.14,339,493.34,333,493.92Z" fill="#184670"/><path d="M295,495.92c5.9-2.22,12-.43,18-1C307.09,497.14,301,495.34,295,495.92Z" fill="#184670"/><path d="M315,494.92c5.55-2.18,11.34-.45,17-1C326.41,496.1,320.63,494.36,315,494.92Z" fill="#184670"/></g></g></svg>